<svg width="780" height="400" viewBox="0 0 780 400" fill="none" xmlns="http://www.w3.org/2000/svg">
<g clip-path="url(#clip0_3560_801)">
<rect width="780" height="400" fill="#091E42"/>
<rect width="780" height="400" fill="url(#paint0_radial_3560_801)"/>
<rect width="780" height="400" fill="url(#paint1_radial_3560_801)"/>
<rect width="780" height="400" fill="url(#paint2_radial_3560_801)"/>
<g opacity="0.2">
<mask id="mask0_3560_801" style="mask-type:alpha" maskUnits="userSpaceOnUse" x="-21" y="60" width="822" height="298">
<path d="M800.684 60.7025L-21 60.7025L-21 357.559L800.684 357.559L800.684 60.7025Z" fill="url(#paint3_linear_3560_801)"/>
</mask>
<g mask="url(#mask0_3560_801)">
<g filter="url(#filter0_d_3560_801)">
<path d="M386.675 545.918C569.957 545.918 718.536 397.556 718.536 214.542C718.536 31.5274 569.957 -116.835 386.675 -116.835C203.394 -116.835 54.8145 31.5274 54.8145 214.542C54.8145 397.556 203.394 545.918 386.675 545.918Z" stroke="url(#paint4_linear_3560_801)" stroke-width="5.3423"/>
</g>
<g filter="url(#filter1_d_3560_801)">
<path d="M389.843 504.41C550.167 504.41 680.135 374.631 680.135 214.541C680.135 54.4512 550.167 -75.3273 389.843 -75.3273C229.519 -75.3273 99.5508 54.4512 99.5508 214.541C99.5508 374.631 229.519 504.41 389.843 504.41Z" stroke="url(#paint5_linear_3560_801)" stroke-opacity="0.8" stroke-width="4.00673"/>
</g>
<g filter="url(#filter2_d_3560_801)">
<path d="M390.036 465.992C529.111 465.992 641.855 353.413 641.855 214.54C641.855 75.6677 529.111 -36.9109 390.036 -36.9109C250.96 -36.9109 138.217 75.6677 138.217 214.54C138.217 353.413 250.96 465.992 390.036 465.992Z" stroke="url(#paint6_linear_3560_801)" stroke-opacity="0.6" stroke-width="2.00336"/>
</g>
<g opacity="0.4">
<g filter="url(#filter3_d_3560_801)">
<path d="M390.102 422.566C505.019 422.566 598.178 329.543 598.178 214.794C598.178 100.044 505.019 7.02115 390.102 7.02115C275.184 7.02115 182.025 100.044 182.025 214.794C182.025 329.543 275.184 422.566 390.102 422.566Z" stroke="url(#paint7_linear_3560_801)" stroke-opacity="0.5" stroke-width="1.33558"/>
</g>
</g>
</g>
</g>
<g clip-path="url(#clip1_3560_801)">
<g filter="url(#filter4_d_3560_801)">
<path d="M224.5 111.325C224.5 108.936 226.436 107 228.825 107L551.175 107C553.564 107 555.5 108.936 555.5 111.325V288.675C555.5 291.064 553.564 293 551.175 293H228.825C226.436 293 224.5 291.064 224.5 288.675V111.325Z" fill="url(#paint8_linear_3560_801)"/>
</g>
<path d="M391.78 138.771H272.896C271.481 138.771 270.334 139.918 270.334 141.333C270.334 142.748 271.481 143.895 272.896 143.895H391.78C393.195 143.895 394.342 142.748 394.342 141.333C394.342 139.918 393.195 138.771 391.78 138.771Z" fill="#15C1E6"/>
<path d="M445.518 249.456H326.634C325.219 249.456 324.072 250.603 324.072 252.018C324.072 253.433 325.219 254.58 326.634 254.58H445.518C446.933 254.58 448.08 253.433 448.08 252.018C448.08 250.603 446.933 249.456 445.518 249.456Z" fill="#3D7FFC"/>
<path d="M250.205 138.771H247.062C245.647 138.771 244.5 139.918 244.5 141.333C244.5 142.748 245.647 143.895 247.062 143.895H250.205C251.62 143.895 252.767 142.748 252.767 141.333C252.767 139.918 251.62 138.771 250.205 138.771Z" fill="white" fill-opacity="0.2"/>
<path d="M250.205 249.456H247.062C245.647 249.456 244.5 250.603 244.5 252.018C244.5 253.433 245.647 254.58 247.062 254.58H250.205C251.62 254.58 252.767 253.433 252.767 252.018C252.767 250.603 251.62 249.456 250.205 249.456Z" fill="white" fill-opacity="0.2"/>
<path d="M435.182 150.044H316.298C314.883 150.044 313.736 151.191 313.736 152.606C313.736 154.021 314.883 155.168 316.298 155.168H435.182C436.597 155.168 437.744 154.021 437.744 152.606C437.744 151.191 436.597 150.044 435.182 150.044Z" fill="#3D7FFC"/>
<path d="M476.52 259.704H366.937C365.522 259.704 364.375 260.851 364.375 262.266C364.375 263.682 365.522 264.829 366.937 264.829H476.52C477.935 264.829 479.082 263.682 479.082 262.266C479.082 260.851 477.935 259.704 476.52 259.704Z" fill="#FFC0E0"/>
<path d="M468.251 150.044H448.574C447.159 150.044 446.012 151.191 446.012 152.606C446.012 154.021 447.159 155.168 448.574 155.168H468.251C469.666 155.168 470.813 154.021 470.813 152.606C470.813 151.191 469.666 150.044 468.251 150.044Z" fill="#9D97F4"/>
<path d="M357.679 259.704H338.002C336.587 259.704 335.439 260.851 335.439 262.266C335.439 263.682 336.587 264.829 338.002 264.829H357.679C359.094 264.829 360.241 263.682 360.241 262.266C360.241 260.851 359.094 259.704 357.679 259.704Z" fill="#0B88CD"/>
<path d="M355.61 161.318H316.298C314.883 161.318 313.736 162.465 313.736 163.88C313.736 165.295 314.883 166.442 316.298 166.442H355.61C357.025 166.442 358.172 165.295 358.172 163.88C358.172 162.465 357.025 161.318 355.61 161.318Z" fill="#15C1E6"/>
<path d="M335.977 270.978H296.666C295.251 270.978 294.104 272.125 294.104 273.54C294.104 274.955 295.251 276.102 296.666 276.102H335.977C337.393 276.102 338.54 274.955 338.54 273.54C338.54 272.125 337.393 270.978 335.977 270.978Z" fill="#15C1E6"/>
<path d="M399.014 161.318H371.07C369.655 161.318 368.508 162.465 368.508 163.88C368.508 165.295 369.655 166.442 371.07 166.442H399.014C400.429 166.442 401.577 165.295 401.577 163.88C401.577 162.465 400.429 161.318 399.014 161.318Z" fill="#9D97F4"/>
<path d="M534 161H470.434C469.053 161 467.934 162.119 467.934 163.5C467.934 164.881 469.053 166 470.434 166H534C535.381 166 536.5 164.881 536.5 163.5C536.5 162.119 535.381 161 534 161Z" fill="#FFC0E0"/>
<path d="M379.38 270.978H351.435C350.02 270.978 348.873 272.125 348.873 273.54C348.873 274.955 350.02 276.102 351.435 276.102H379.38C380.795 276.102 381.942 274.955 381.942 273.54C381.942 272.125 380.795 270.978 379.38 270.978Z" fill="#9D97F4"/>
<path d="M478.274 270.978H450.33C448.915 270.978 447.768 272.125 447.768 273.54C447.768 274.955 448.915 276.102 450.33 276.102H478.274C479.689 276.102 480.836 274.955 480.836 273.54C480.836 272.125 479.689 270.978 478.274 270.978Z" fill="#3D7FFC"/>
<path d="M455.851 161.318H414.472C413.057 161.318 411.91 162.465 411.91 163.88C411.91 165.295 413.057 166.442 414.472 166.442H455.851C457.266 166.442 458.413 165.295 458.413 163.88C458.413 162.465 457.266 161.318 455.851 161.318Z" fill="#3D7FFC"/>
<path d="M435.185 270.978H393.806C392.391 270.978 391.244 272.125 391.244 273.54C391.244 274.955 392.391 276.102 393.806 276.102H435.185C436.6 276.102 437.747 274.955 437.747 273.54C437.747 272.125 436.6 270.978 435.185 270.978Z" fill="#FFC0E0"/>
<path d="M443.449 172.591H358.668C357.253 172.591 356.105 173.738 356.105 175.153C356.105 176.568 357.253 177.715 358.668 177.715H443.449C444.864 177.715 446.011 176.568 446.011 175.153C446.011 173.738 444.864 172.591 443.449 172.591Z" fill="#3D7FFC"/>
<path d="M483.755 282.251H413.441C412.026 282.251 410.879 283.398 410.879 284.813C410.879 286.228 412.026 287.376 413.441 287.376H483.755C485.17 287.376 486.317 286.228 486.317 284.813C486.317 283.398 485.17 282.251 483.755 282.251Z" fill="#FFC0E0"/>
<path d="M344.245 172.591H334.902C333.487 172.591 332.34 173.738 332.34 175.153C332.34 176.568 333.487 177.715 334.902 177.715H344.245C345.66 177.715 346.807 176.568 346.807 175.153C346.807 173.738 345.66 172.591 344.245 172.591Z" fill="#9D97F4"/>
<path d="M397.98 282.251H388.636C387.221 282.251 386.074 283.398 386.074 284.813C386.074 286.228 387.221 287.376 388.636 287.376H397.98C399.395 287.376 400.542 286.228 400.542 284.813C400.542 283.398 399.395 282.251 397.98 282.251Z" fill="#9D97F4"/>
<path d="M399.015 182.84H334.902C333.487 182.84 332.34 183.987 332.34 185.402C332.34 186.817 333.487 187.964 334.902 187.964H399.015C400.43 187.964 401.577 186.817 401.577 185.402C401.577 183.987 400.43 182.84 399.015 182.84Z" fill="#15C1E6"/>
<path d="M250.205 150.044H247.062C245.647 150.044 244.5 151.191 244.5 152.606C244.5 154.021 245.647 155.168 247.062 155.168H250.205C251.62 155.168 252.767 154.021 252.767 152.606C252.767 151.191 251.62 150.044 250.205 150.044Z" fill="white" fill-opacity="0.2"/>
<path d="M250.205 259.704H247.062C245.647 259.704 244.5 260.851 244.5 262.266C244.5 263.682 245.647 264.829 247.062 264.829H250.205C251.62 264.829 252.767 263.682 252.767 262.266C252.767 260.851 251.62 259.704 250.205 259.704Z" fill="white" fill-opacity="0.2"/>
<path d="M250.205 161.318H247.062C245.647 161.318 244.5 162.465 244.5 163.88C244.5 165.295 245.647 166.442 247.062 166.442H250.205C251.62 166.442 252.767 165.295 252.767 163.88C252.767 162.465 251.62 161.318 250.205 161.318Z" fill="white" fill-opacity="0.2"/>
<path d="M250.205 270.978H247.062C245.647 270.978 244.5 272.125 244.5 273.54C244.5 274.955 245.647 276.102 247.062 276.102H250.205C251.62 276.102 252.767 274.955 252.767 273.54C252.767 272.125 251.62 270.978 250.205 270.978Z" fill="white" fill-opacity="0.2"/>
<path d="M250.205 172.591H247.062C245.647 172.591 244.5 173.738 244.5 175.153C244.5 176.568 245.647 177.715 247.062 177.715H250.205C251.62 177.715 252.767 176.568 252.767 175.153C252.767 173.738 251.62 172.591 250.205 172.591Z" fill="white" fill-opacity="0.2"/>
<path d="M250.205 282.251H247.062C245.647 282.251 244.5 283.398 244.5 284.813C244.5 286.228 245.647 287.376 247.062 287.376H250.205C251.62 287.376 252.767 286.228 252.767 284.813C252.767 283.398 251.62 282.251 250.205 282.251Z" fill="white" fill-opacity="0.2"/>
<path d="M250.205 182.84H247.062C245.647 182.84 244.5 183.987 244.5 185.402C244.5 186.817 245.647 187.964 247.062 187.964H250.205C251.62 187.964 252.767 186.817 252.767 185.402C252.767 183.987 251.62 182.84 250.205 182.84Z" fill="white" fill-opacity="0.2"/>
<path d="M430.016 194.113H311.132C309.717 194.113 308.57 195.26 308.57 196.675C308.57 198.09 309.717 199.237 311.132 199.237H430.016C431.431 199.237 432.578 198.09 432.578 196.675C432.578 195.26 431.431 194.113 430.016 194.113Z" fill="#9D97F4"/>
<path d="M250.205 194.113H247.062C245.647 194.113 244.5 195.26 244.5 196.675C244.5 198.09 245.647 199.237 247.062 199.237H250.205C251.62 199.237 252.767 198.09 252.767 196.675C252.767 195.26 251.62 194.113 250.205 194.113Z" fill="white" fill-opacity="0.2"/>
<path d="M435.182 205.387H316.298C314.883 205.387 313.736 206.534 313.736 207.949C313.736 209.364 314.883 210.511 316.298 210.511H435.182C436.597 210.511 437.744 209.364 437.744 207.949C437.744 206.534 436.597 205.387 435.182 205.387Z" fill="#3D7FFC"/>
<path d="M468.251 205.387H448.574C447.159 205.387 446.012 206.534 446.012 207.949C446.012 209.364 447.159 210.511 448.574 210.511H468.251C469.666 210.511 470.813 209.364 470.813 207.949C470.813 206.534 469.666 205.387 468.251 205.387Z" fill="#0B88CD"/>
<path d="M355.61 215.635H316.298C314.883 215.635 313.736 216.782 313.736 218.197C313.736 219.612 314.883 220.76 316.298 220.76H355.61C357.025 220.76 358.172 219.612 358.172 218.197C358.172 216.782 357.025 215.635 355.61 215.635Z" fill="#15C1E6"/>
<path d="M399.014 215.635H371.07C369.655 215.635 368.508 216.782 368.508 218.197C368.508 219.612 369.655 220.76 371.07 220.76H399.014C400.429 220.76 401.577 219.612 401.577 218.197C401.577 216.782 400.429 215.635 399.014 215.635Z" fill="#9D97F4"/>
<path d="M455.851 215.635H414.472C413.057 215.635 411.91 216.782 411.91 218.197C411.91 219.612 413.057 220.76 414.472 220.76H455.851C457.266 220.76 458.413 219.612 458.413 218.197C458.413 216.782 457.266 215.635 455.851 215.635Z" fill="#FFC0E0"/>
<path d="M443.449 226.909H358.668C357.253 226.909 356.105 228.056 356.105 229.471C356.105 230.886 357.253 232.033 358.668 232.033H443.449C444.864 232.033 446.011 230.886 446.011 229.471C446.011 228.056 444.864 226.909 443.449 226.909Z" fill="#FFC0E0"/>
<path d="M344.245 226.909H334.902C333.487 226.909 332.34 228.056 332.34 229.471C332.34 230.886 333.487 232.033 334.902 232.033H344.245C345.66 232.033 346.807 230.886 346.807 229.471C346.807 228.056 345.66 226.909 344.245 226.909Z" fill="#9D97F4"/>
<path d="M349.412 238.182H285.298C283.883 238.182 282.736 239.329 282.736 240.744C282.736 242.159 283.883 243.307 285.298 243.307H349.412C350.827 243.307 351.974 242.159 351.974 240.744C351.974 239.329 350.827 238.182 349.412 238.182Z" fill="#3D7FFC"/>
<path d="M250.205 205.387H247.062C245.647 205.387 244.5 206.534 244.5 207.949C244.5 209.364 245.647 210.511 247.062 210.511H250.205C251.62 210.511 252.767 209.364 252.767 207.949C252.767 206.534 251.62 205.387 250.205 205.387Z" fill="white" fill-opacity="0.2"/>
<path d="M250.205 215.635H247.062C245.647 215.635 244.5 216.782 244.5 218.197C244.5 219.612 245.647 220.76 247.062 220.76H250.205C251.62 220.76 252.767 219.612 252.767 218.197C252.767 216.782 251.62 215.635 250.205 215.635Z" fill="white" fill-opacity="0.2"/>
<path d="M250.205 226.909H247.062C245.647 226.909 244.5 228.056 244.5 229.471C244.5 230.886 245.647 232.033 247.062 232.033H250.205C251.62 232.033 252.767 230.886 252.767 229.471C252.767 228.056 251.62 226.909 250.205 226.909Z" fill="white" fill-opacity="0.2"/>
<path d="M250.205 238.182H247.062C245.647 238.182 244.5 239.329 244.5 240.744C244.5 242.159 245.647 243.307 247.062 243.307H250.205C251.62 243.307 252.767 242.159 252.767 240.744C252.767 239.329 251.62 238.182 250.205 238.182Z" fill="white" fill-opacity="0.2"/>
<rect x="440.965" y="193.194" width="62.9961" height="6.15958" rx="3.07979" fill="#15C1E6"/>
<path d="M224.5 128H555.5" stroke="white" stroke-opacity="0.2" stroke-width="1.17915"/>
<path fill-rule="evenodd" clip-rule="evenodd" d="M240.301 116.188H241.068C241.228 116.188 241.357 116.317 241.357 116.477V117.919C241.357 118.079 241.228 118.208 241.068 118.208H240.301C240.212 118.54 240.081 118.854 239.913 119.144L240.456 119.687C240.568 119.8 240.568 119.982 240.456 120.095L239.436 121.115C239.323 121.228 239.14 121.228 239.028 121.115L238.485 120.572C238.195 120.74 237.88 120.872 237.549 120.96V121.728C237.549 121.887 237.419 122.016 237.26 122.016H235.818C235.658 122.016 235.529 121.887 235.529 121.728V120.96C235.197 120.872 234.883 120.74 234.593 120.572L234.05 121.115C233.937 121.228 233.755 121.228 233.642 121.115L232.622 120.095C232.509 119.982 232.509 119.8 232.622 119.687L233.164 119.144C232.997 118.854 232.865 118.54 232.776 118.208H232.009C231.85 118.208 231.721 118.079 231.721 117.919V116.477C231.721 116.317 231.85 116.188 232.009 116.188H232.776C232.865 115.857 232.997 115.542 233.164 115.252L232.622 114.709C232.509 114.597 232.509 114.414 232.622 114.301L233.642 113.281C233.755 113.169 233.937 113.169 234.05 113.281L234.592 113.824C234.883 113.656 235.197 113.525 235.529 113.436V112.669C235.529 112.509 235.658 112.38 235.818 112.38H237.26C237.419 112.38 237.549 112.509 237.549 112.669V113.436C237.88 113.525 238.195 113.656 238.485 113.824L239.028 113.281C239.14 113.168 239.323 113.168 239.436 113.281L240.456 114.301C240.568 114.414 240.568 114.597 240.456 114.709L239.913 115.252C240.081 115.542 240.212 115.857 240.301 116.188ZM236.538 119.125C237.603 119.125 238.466 118.262 238.466 117.198C238.466 116.133 237.603 115.27 236.538 115.27C235.474 115.27 234.611 116.133 234.611 117.198C234.611 118.262 235.474 119.125 236.538 119.125Z" fill="white" fill-opacity="0.2"/>
</g>
<g opacity="0.6" clip-path="url(#clip2_3560_801)">
<path opacity="0.4" d="M386.815 342.584C313.807 341.195 255.774 279.973 257.195 205.841C258.616 131.709 318.952 72.74 391.96 74.1296C464.968 75.5192 523.001 136.741 521.58 210.873C520.159 285.005 459.823 343.974 386.815 342.584Z" fill="url(#paint9_linear_3560_801)"/>
<ellipse opacity="0.7" cx="113.382" cy="111.875" rx="113.382" ry="111.875" transform="matrix(-0.0606102 0.998161 -0.998189 -0.0601584 506.072 101.465)" fill="url(#paint10_linear_3560_801)"/>
<ellipse cx="90.2539" cy="90.4039" rx="90.2539" ry="90.4039" transform="matrix(-0.0605908 0.998163 -0.998188 -0.0601776 483.471 122.901)" fill="url(#paint11_linear_3560_801)"/>
</g>
<circle cx="388.783" cy="208.523" r="54.7431" fill="#0A3066" stroke="url(#paint12_linear_3560_801)" stroke-width="2.92385"/>
<path d="M388.296 180.584C374.079 180.584 374.967 186.782 374.967 186.782L374.982 193.204H388.549V195.132H369.594C369.594 195.132 360.496 194.094 360.496 208.516C360.496 222.937 368.437 222.426 368.437 222.426H373.176V215.734C373.176 215.734 372.92 207.751 380.989 207.751C389.059 207.751 394.445 207.751 394.445 207.751C394.445 207.751 402.006 207.874 402.006 200.406C402.006 192.937 402.006 188.057 402.006 188.057C402.006 188.057 403.153 180.584 388.296 180.584ZM380.815 184.902C382.165 184.902 383.256 185.999 383.256 187.356C383.256 188.713 382.165 189.81 380.815 189.81C379.465 189.81 378.374 188.713 378.374 187.356C378.374 185.999 379.465 184.902 380.815 184.902Z" fill="#027BEA"/>
<path d="M388.709 236.597C402.926 236.597 402.038 230.399 402.038 230.399L402.022 223.978H388.455V222.05H407.411C407.411 222.05 416.509 223.087 416.509 208.666C416.509 194.244 408.568 194.755 408.568 194.755H403.829V201.448C403.829 201.448 404.085 209.43 396.015 209.43C387.946 209.43 382.559 209.43 382.559 209.43C382.559 209.43 374.999 209.307 374.999 216.776C374.999 224.244 374.999 229.124 374.999 229.124C374.999 229.124 373.851 236.597 388.709 236.597ZM396.19 232.279C394.84 232.279 393.749 231.182 393.749 229.825C393.749 228.468 394.84 227.372 396.19 227.372C397.54 227.372 398.63 228.468 398.63 229.825C398.63 231.182 397.54 232.279 396.19 232.279Z" fill="#FFC107"/>
<g opacity="0.7">
<path d="M231.24 177.831C231.655 178.245 231.655 178.917 231.24 179.331L224.49 186.081C224.076 186.495 223.404 186.495 222.99 186.081C222.575 185.667 222.575 184.995 222.99 184.581L228.99 178.581L222.99 172.58C222.576 172.166 222.576 171.494 222.99 171.08C223.404 170.666 224.076 170.666 224.49 171.08L231.24 177.831ZM196.632 91.0001L196.632 89.9394L196.632 91.0001ZM230.49 179.641L221.198 179.641L221.198 177.52L230.49 177.52L230.49 179.641ZM207.854 166.297L207.855 103.284L209.976 103.284L209.976 166.297L207.854 166.297ZM196.632 92.0609L180.644 92.0608L180.644 89.9393L196.632 89.9394L196.632 92.0609ZM207.855 103.284C207.855 97.0855 202.83 92.0609 196.632 92.0609L196.632 89.9394C204.002 89.9394 209.976 95.9138 209.976 103.284L207.855 103.284ZM221.198 179.641C213.828 179.641 207.854 173.667 207.854 166.297L209.976 166.297C209.976 172.495 215 177.52 221.198 177.52L221.198 179.641Z" fill="url(#paint13_linear_3560_801)"/>
<path d="M230.381 220.691C230.795 220.277 230.795 219.605 230.381 219.191L223.63 212.44C223.216 212.026 222.545 212.026 222.13 212.44C221.716 212.855 221.716 213.526 222.13 213.941L228.131 219.941L222.13 225.941C221.716 226.356 221.716 227.027 222.13 227.441C222.545 227.856 223.216 227.856 223.63 227.441L230.381 220.691ZM195.772 307.517L195.772 306.457L195.772 307.517ZM208.055 232.224L209.115 232.224L208.055 232.224ZM229.631 218.88L220.338 218.88L220.338 221.002L229.631 221.002L229.631 218.88ZM206.994 232.224L206.994 295.234L209.116 295.234L209.115 232.224L206.994 232.224ZM195.772 306.457L179.782 306.457L179.782 308.578L195.772 308.578L195.772 306.457ZM206.994 295.234C206.994 301.432 201.97 306.457 195.772 306.457L195.772 308.578C203.142 308.578 209.116 302.604 209.116 295.234L206.994 295.234ZM220.338 218.88C212.968 218.88 206.994 224.855 206.994 232.224L209.115 232.224C209.115 226.026 214.14 221.002 220.338 221.002L220.338 218.88Z" fill="url(#paint14_linear_3560_801)"/>
<path d="M230.154 200.342C230.569 199.928 230.569 199.257 230.154 198.842L223.404 192.092C222.99 191.678 222.318 191.678 221.904 192.092C221.49 192.506 221.49 193.178 221.904 193.592L227.904 199.592L221.904 205.593C221.49 206.007 221.49 206.679 221.904 207.093C222.318 207.507 222.99 207.507 223.404 207.093L230.154 200.342ZM198.55 199.592L198.55 200.653L198.55 200.653L198.55 199.592ZM229.404 198.532L198.55 198.532L198.55 200.653L229.404 200.653L229.404 198.532ZM198.55 198.532L179.805 198.532L179.805 200.653L198.55 200.653L198.55 198.532Z" fill="url(#paint15_linear_3560_801)"/>
</g>
<g opacity="0.7">
<path d="M550.25 221.169C549.836 220.755 549.836 220.083 550.25 219.669L557 212.919C557.415 212.505 558.086 212.505 558.501 212.919C558.915 213.333 558.915 214.005 558.501 214.419L552.5 220.419L558.5 226.42C558.915 226.834 558.915 227.506 558.5 227.92C558.086 228.334 557.415 228.334 557 227.92L550.25 221.169ZM584.858 308L584.858 309.061L584.858 308ZM551 219.359L560.292 219.359L560.292 221.48L551 221.48L551 219.359ZM573.636 232.703L573.636 295.716L571.514 295.716L571.515 232.703L573.636 232.703ZM584.858 306.939L600.847 306.939L600.847 309.061L584.858 309.061L584.858 306.939ZM573.636 295.716C573.636 301.915 578.66 306.939 584.858 306.939L584.858 309.061C577.488 309.061 571.514 303.086 571.514 295.716L573.636 295.716ZM560.292 219.359C567.662 219.359 573.636 225.333 573.636 232.703L571.515 232.703C571.515 226.505 566.49 221.48 560.292 221.48L560.292 219.359Z" fill="url(#paint16_linear_3560_801)"/>
<path d="M551.109 178.309C550.695 178.723 550.695 179.395 551.109 179.809L557.86 186.56C558.274 186.974 558.946 186.974 559.36 186.56C559.774 186.145 559.774 185.474 559.36 185.059L553.359 179.059L559.36 173.059C559.774 172.644 559.774 171.973 559.36 171.559C558.946 171.144 558.274 171.144 557.86 171.559L551.109 178.309ZM585.718 91.4826L585.718 92.5433L585.718 91.4826ZM573.436 166.776L572.375 166.776L573.436 166.776ZM551.859 180.12L561.152 180.12L561.152 177.998L551.859 177.998L551.859 180.12ZM574.496 166.776L574.496 103.766L572.374 103.766L572.375 166.776L574.496 166.776ZM585.718 92.5433L601.708 92.5433L601.708 90.4218L585.718 90.4219L585.718 92.5433ZM574.496 103.766C574.496 97.5679 579.52 92.5433 585.718 92.5433L585.718 90.4219C578.349 90.4219 572.374 96.3963 572.374 103.766L574.496 103.766ZM561.152 180.12C568.522 180.12 574.496 174.145 574.496 166.776L572.375 166.776C572.375 172.974 567.35 177.998 561.152 177.998L561.152 180.12Z" fill="url(#paint17_linear_3560_801)"/>
<path d="M551.336 198.658C550.922 199.072 550.922 199.743 551.336 200.158L558.086 206.908C558.501 207.322 559.172 207.322 559.586 206.908C560.001 206.494 560.001 205.822 559.586 205.408L553.586 199.408L559.586 193.407C560.001 192.993 560.001 192.321 559.586 191.907C559.172 191.493 558.501 191.493 558.086 191.907L551.336 198.658ZM582.94 199.408L582.94 198.347L582.94 198.347L582.94 199.408ZM552.086 200.468L582.94 200.468L582.94 198.347L552.086 198.347L552.086 200.468ZM582.94 200.468L601.685 200.468L601.685 198.347L582.94 198.347L582.94 200.468Z" fill="url(#paint18_linear_3560_801)"/>
</g>
<g clip-path="url(#clip3_3560_801)">
<g filter="url(#filter5_bd_3560_801)">
<rect x="81.3672" y="66.1073" width="83" height="53.12" rx="1.98937" fill="url(#paint19_linear_3560_801)"/>
<rect x="81.4915" y="66.2316" width="82.7513" height="52.8713" rx="1.86504" stroke="url(#paint20_linear_3560_801)" stroke-opacity="0.2" stroke-width="0.248672"/>
</g>
<g style="mix-blend-mode:overlay">
<rect x="81.3672" y="76.2333" width="83" height="42.828" fill="#A2C6FF" fill-opacity="0.6"/>
</g>
<path opacity="0.3" d="M86.1816 82.7053C86.1816 81.8813 86.8496 81.2133 87.6737 81.2133H158.062C158.886 81.2133 159.554 81.8813 159.554 82.7053V119.227H86.1816V82.7053Z" fill="#022455"/>
<g style="mix-blend-mode:overlay">
<path fill-rule="evenodd" clip-rule="evenodd" d="M96.4727 70.8383C96.4727 69.8757 97.3299 69.0953 98.3874 69.0953H157.638C158.695 69.0953 159.553 69.8757 159.553 70.8383C159.553 71.8009 158.695 72.5813 157.638 72.5813L98.3874 72.5813C97.3299 72.5813 96.4727 71.8009 96.4727 70.8383Z" fill="#A2C6FF" fill-opacity="0.6"/>
</g>
<path d="M86.6796 70.7553C86.6796 71.1191 86.3794 71.4193 86.0156 71.4193C85.6517 71.4193 85.3516 71.1191 85.3516 70.7553C85.3516 70.3915 85.6517 70.0913 86.0156 70.0913C86.3794 70.0913 86.6796 70.3915 86.6796 70.7553Z" fill="white"/>
<path d="M89.4999 70.7553C89.4999 71.1191 89.1997 71.4193 88.8359 71.4193C88.472 71.4193 88.1719 71.1191 88.1719 70.7553C88.1719 70.3915 88.472 70.0913 88.8359 70.0913C89.2088 70.0913 89.4999 70.3915 89.4999 70.7553Z" fill="white"/>
<path d="M92.3202 70.7553C92.3202 71.1191 92.02 71.4193 91.6562 71.4193C91.2924 71.4193 90.9922 71.1191 90.9922 70.7553C90.9922 70.3915 91.2924 70.0913 91.6562 70.0913C92.02 70.0913 92.3202 70.3915 92.3202 70.7553Z" fill="white"/>
<g style="mix-blend-mode:color-dodge" opacity="0.7">
<path d="M127.267 84.6993H90.083C89.8538 84.6993 89.668 84.8851 89.668 85.1143C89.668 85.3435 89.8538 85.5293 90.083 85.5293H127.267C127.496 85.5293 127.682 85.3435 127.682 85.1143C127.682 84.8851 127.496 84.6993 127.267 84.6993Z" fill="#E7EEFF"/>
<path d="M143.701 118.397H106.517C106.287 118.397 106.102 118.583 106.102 118.812C106.102 119.041 106.287 119.227 106.517 119.227H143.701C143.93 119.227 144.116 119.041 144.116 118.812C144.116 118.583 143.93 118.397 143.701 118.397Z" fill="#9FC0FF"/>
<path d="M140.546 88.1853H103.362C103.133 88.1853 102.947 88.3711 102.947 88.6003C102.947 88.8295 103.133 89.0153 103.362 89.0153H140.546C140.775 89.0153 140.961 88.8295 140.961 88.6003C140.961 88.3711 140.775 88.1853 140.546 88.1853Z" fill="#9FC0FF"/>
<path d="M150.508 88.1853H143.868C143.639 88.1853 143.453 88.3711 143.453 88.6003C143.453 88.8295 143.639 89.0153 143.868 89.0153H150.508C150.737 89.0153 150.923 88.8295 150.923 88.6003C150.923 88.3711 150.737 88.1853 150.508 88.1853Z" fill="#3D7FFC"/>
<path d="M116.31 91.3393H103.362C103.133 91.3393 102.947 91.5251 102.947 91.7543C102.947 91.9835 103.133 92.1693 103.362 92.1693H116.31C116.539 92.1693 116.725 91.9835 116.725 91.7543C116.725 91.5251 116.539 91.3393 116.31 91.3393Z" fill="#E7EEFF"/>
<path d="M129.26 91.3393H119.964C119.735 91.3393 119.549 91.5251 119.549 91.7543C119.549 91.9835 119.735 92.1693 119.964 92.1693H129.26C129.489 92.1693 129.675 91.9835 129.675 91.7543C129.675 91.5251 129.489 91.3393 129.26 91.3393Z" fill="#3D7FFC"/>
<path d="M147.187 91.3393H133.409C133.18 91.3393 132.994 91.5251 132.994 91.7543C132.994 91.9835 133.18 92.1693 133.409 92.1693H147.187C147.416 92.1693 147.602 91.9835 147.602 91.7543C147.602 91.5251 147.416 91.3393 147.187 91.3393Z" fill="#9FC0FF"/>
<path d="M143.037 94.9913H116.478C116.248 94.9913 116.062 95.1771 116.062 95.4063C116.062 95.6355 116.248 95.8213 116.478 95.8213H143.038C143.267 95.8213 143.452 95.6355 143.452 95.4063C143.452 95.1771 143.267 94.9913 143.037 94.9913Z" fill="#9FC0FF"/>
<path d="M112.659 94.9913H109.173C108.944 94.9913 108.758 95.1771 108.758 95.4063C108.758 95.6355 108.944 95.8213 109.173 95.8213H112.659C112.888 95.8213 113.074 95.6355 113.074 95.4063C113.074 95.1771 112.888 94.9913 112.659 94.9913Z" fill="#3D7FFC"/>
<path d="M129.591 98.4773H109.173C108.944 98.4773 108.758 98.6631 108.758 98.8923C108.758 99.1215 108.944 99.3073 109.173 99.3073H129.591C129.82 99.3073 130.006 99.1215 130.006 98.8923C130.006 98.6631 129.82 98.4773 129.591 98.4773Z" fill="#E7EEFF"/>
<path d="M139.22 101.465H102.036C101.807 101.465 101.621 101.651 101.621 101.88C101.621 102.109 101.807 102.295 102.036 102.295H139.22C139.449 102.295 139.635 102.109 139.635 101.88C139.635 101.651 139.449 101.465 139.22 101.465Z" fill="#3D7FFC"/>
<path d="M140.546 104.951H103.362C103.133 104.951 102.947 105.137 102.947 105.366C102.947 105.595 103.133 105.781 103.362 105.781H140.546C140.775 105.781 140.961 105.595 140.961 105.366C140.961 105.137 140.775 104.951 140.546 104.951Z" fill="#9FC0FF"/>
<path d="M150.508 104.951H143.868C143.639 104.951 143.453 105.137 143.453 105.366C143.453 105.595 143.639 105.781 143.868 105.781H150.508C150.737 105.781 150.923 105.595 150.923 105.366C150.923 105.137 150.737 104.951 150.508 104.951Z" fill="#E7EEFF"/>
<path d="M116.31 108.271H103.362C103.133 108.271 102.947 108.457 102.947 108.686C102.947 108.915 103.133 109.101 103.362 109.101H116.31C116.539 109.101 116.725 108.915 116.725 108.686C116.725 108.457 116.539 108.271 116.31 108.271Z" fill="#E7EEFF"/>
<path d="M129.26 108.271H119.964C119.735 108.271 119.549 108.457 119.549 108.686C119.549 108.915 119.735 109.101 119.964 109.101H129.26C129.489 109.101 129.675 108.915 129.675 108.686C129.675 108.457 129.489 108.271 129.26 108.271Z" fill="#3D7FFC"/>
<path d="M147.187 108.271H133.409C133.18 108.271 132.994 108.457 132.994 108.686C132.994 108.915 133.18 109.101 133.409 109.101H147.187C147.416 109.101 147.602 108.915 147.602 108.686C147.602 108.457 147.416 108.271 147.187 108.271Z" fill="#9FC0FF"/>
<path d="M143.037 111.757H116.478C116.248 111.757 116.062 111.943 116.062 112.172C116.062 112.401 116.248 112.587 116.478 112.587H143.038C143.267 112.587 143.452 112.401 143.452 112.172C143.452 111.943 143.267 111.757 143.037 111.757Z" fill="#9FC0FF"/>
<path d="M112.659 111.757H109.173C108.944 111.757 108.758 111.943 108.758 112.172C108.758 112.401 108.944 112.587 109.173 112.587H112.659C112.888 112.587 113.074 112.401 113.074 112.172C113.074 111.943 112.888 111.757 112.659 111.757Z" fill="#3D7FFC"/>
<path d="M114.485 115.243H94.0673C93.8381 115.243 93.6523 115.429 93.6523 115.658C93.6523 115.887 93.8381 116.073 94.0673 116.073H114.485C114.715 116.073 114.9 115.887 114.9 115.658C114.9 115.429 114.715 115.243 114.485 115.243Z" fill="#9FC0FF"/>
</g>
</g>
<g clip-path="url(#clip4_3560_801)">
<g filter="url(#filter6_bd_3560_801)">
<rect x="617.121" y="66.1073" width="83" height="53.12" rx="1.98937" fill="url(#paint21_linear_3560_801)"/>
<rect x="617.245" y="66.2316" width="82.7513" height="52.8713" rx="1.86504" stroke="url(#paint22_linear_3560_801)" stroke-opacity="0.2" stroke-width="0.248672"/>
</g>
<g style="mix-blend-mode:overlay">
<rect x="617.121" y="76.2333" width="83" height="42.828" fill="#A2C6FF" fill-opacity="0.6"/>
</g>
<path opacity="0.3" d="M621.936 82.7053C621.936 81.8813 622.604 81.2133 623.428 81.2133H693.816C694.64 81.2133 695.308 81.8813 695.308 82.7053V119.227H621.936V82.7053Z" fill="#022455"/>
<g style="mix-blend-mode:overlay">
<path fill-rule="evenodd" clip-rule="evenodd" d="M632.227 70.8383C632.227 69.8757 633.084 69.0953 634.141 69.0953H693.392C694.449 69.0953 695.307 69.8757 695.307 70.8383C695.307 71.8009 694.449 72.5813 693.392 72.5813L634.141 72.5813C633.084 72.5813 632.227 71.8009 632.227 70.8383Z" fill="#A2C6FF" fill-opacity="0.6"/>
</g>
<path d="M622.433 70.7553C622.433 71.1191 622.133 71.4193 621.769 71.4193C621.406 71.4193 621.105 71.1191 621.105 70.7553C621.105 70.3915 621.406 70.0913 621.769 70.0913C622.133 70.0913 622.433 70.3915 622.433 70.7553Z" fill="white"/>
<path d="M625.254 70.7553C625.254 71.1191 624.954 71.4193 624.59 71.4193C624.226 71.4193 623.926 71.1191 623.926 70.7553C623.926 70.3915 624.226 70.0913 624.59 70.0913C624.963 70.0913 625.254 70.3915 625.254 70.7553Z" fill="white"/>
<path d="M628.074 70.7553C628.074 71.1191 627.774 71.4193 627.41 71.4193C627.046 71.4193 626.746 71.1191 626.746 70.7553C626.746 70.3915 627.046 70.0913 627.41 70.0913C627.774 70.0913 628.074 70.3915 628.074 70.7553Z" fill="white"/>
<g style="mix-blend-mode:color-dodge" opacity="0.7">
<path d="M663.021 84.6993H625.837C625.608 84.6993 625.422 84.8851 625.422 85.1143C625.422 85.3435 625.608 85.5293 625.837 85.5293H663.021C663.25 85.5293 663.436 85.3435 663.436 85.1143C663.436 84.8851 663.25 84.6993 663.021 84.6993Z" fill="#E7EEFF"/>
<path d="M679.454 118.397H642.27C642.041 118.397 641.855 118.583 641.855 118.812C641.855 119.041 642.041 119.227 642.27 119.227H679.454C679.684 119.227 679.869 119.041 679.869 118.812C679.869 118.583 679.684 118.397 679.454 118.397Z" fill="#9FC0FF"/>
<path d="M676.3 88.1853H639.116C638.887 88.1853 638.701 88.3711 638.701 88.6003C638.701 88.8295 638.887 89.0153 639.116 89.0153H676.3C676.529 89.0153 676.715 88.8295 676.715 88.6003C676.715 88.3711 676.529 88.1853 676.3 88.1853Z" fill="#9FC0FF"/>
<path d="M686.262 88.1853H679.622C679.393 88.1853 679.207 88.3711 679.207 88.6003C679.207 88.8295 679.393 89.0153 679.622 89.0153H686.262C686.491 89.0153 686.677 88.8295 686.677 88.6003C686.677 88.3711 686.491 88.1853 686.262 88.1853Z" fill="#3D7FFC"/>
<path d="M652.064 91.3393H639.116C638.887 91.3393 638.701 91.5251 638.701 91.7543C638.701 91.9835 638.887 92.1693 639.116 92.1693H652.064C652.293 92.1693 652.479 91.9835 652.479 91.7543C652.479 91.5251 652.293 91.3393 652.064 91.3393Z" fill="#E7EEFF"/>
<path d="M665.014 91.3393H655.718C655.489 91.3393 655.303 91.5251 655.303 91.7543C655.303 91.9835 655.489 92.1693 655.718 92.1693H665.014C665.243 92.1693 665.429 91.9835 665.429 91.7543C665.429 91.5251 665.243 91.3393 665.014 91.3393Z" fill="#3D7FFC"/>
<path d="M682.941 91.3393H669.163C668.934 91.3393 668.748 91.5251 668.748 91.7543C668.748 91.9835 668.934 92.1693 669.163 92.1693H682.941C683.17 92.1693 683.356 91.9835 683.356 91.7543C683.356 91.5251 683.17 91.3393 682.941 91.3393Z" fill="#9FC0FF"/>
<path d="M678.791 94.9913H652.231C652.002 94.9913 651.816 95.1771 651.816 95.4063C651.816 95.6355 652.002 95.8213 652.231 95.8213H678.791C679.021 95.8213 679.206 95.6355 679.206 95.4063C679.206 95.1771 679.021 94.9913 678.791 94.9913Z" fill="#9FC0FF"/>
<path d="M648.413 94.9913H644.927C644.698 94.9913 644.512 95.1771 644.512 95.4063C644.512 95.6355 644.698 95.8213 644.927 95.8213H648.413C648.642 95.8213 648.828 95.6355 648.828 95.4063C648.828 95.1771 648.642 94.9913 648.413 94.9913Z" fill="#3D7FFC"/>
<path d="M665.345 98.4773H644.927C644.698 98.4773 644.512 98.6631 644.512 98.8923C644.512 99.1215 644.698 99.3073 644.927 99.3073H665.345C665.574 99.3073 665.76 99.1215 665.76 98.8923C665.76 98.6631 665.574 98.4773 665.345 98.4773Z" fill="#E7EEFF"/>
<path d="M674.974 101.465H637.79C637.561 101.465 637.375 101.651 637.375 101.88C637.375 102.109 637.561 102.295 637.79 102.295H674.974C675.203 102.295 675.389 102.109 675.389 101.88C675.389 101.651 675.203 101.465 674.974 101.465Z" fill="#3D7FFC"/>
<path d="M676.3 104.951H639.116C638.887 104.951 638.701 105.137 638.701 105.366C638.701 105.595 638.887 105.781 639.116 105.781H676.3C676.529 105.781 676.715 105.595 676.715 105.366C676.715 105.137 676.529 104.951 676.3 104.951Z" fill="#9FC0FF"/>
<path d="M686.262 104.951H679.622C679.393 104.951 679.207 105.137 679.207 105.366C679.207 105.595 679.393 105.781 679.622 105.781H686.262C686.491 105.781 686.677 105.595 686.677 105.366C686.677 105.137 686.491 104.951 686.262 104.951Z" fill="#E7EEFF"/>
<path d="M652.064 108.271H639.116C638.887 108.271 638.701 108.457 638.701 108.686C638.701 108.915 638.887 109.101 639.116 109.101H652.064C652.293 109.101 652.479 108.915 652.479 108.686C652.479 108.457 652.293 108.271 652.064 108.271Z" fill="#E7EEFF"/>
<path d="M665.014 108.271H655.718C655.489 108.271 655.303 108.457 655.303 108.686C655.303 108.915 655.489 109.101 655.718 109.101H665.014C665.243 109.101 665.429 108.915 665.429 108.686C665.429 108.457 665.243 108.271 665.014 108.271Z" fill="#3D7FFC"/>
<path d="M682.941 108.271H669.163C668.934 108.271 668.748 108.457 668.748 108.686C668.748 108.915 668.934 109.101 669.163 109.101H682.941C683.17 109.101 683.356 108.915 683.356 108.686C683.356 108.457 683.17 108.271 682.941 108.271Z" fill="#9FC0FF"/>
<path d="M678.791 111.757H652.231C652.002 111.757 651.816 111.943 651.816 112.172C651.816 112.401 652.002 112.587 652.231 112.587H678.791C679.021 112.587 679.206 112.401 679.206 112.172C679.206 111.943 679.021 111.757 678.791 111.757Z" fill="#9FC0FF"/>
<path d="M648.413 111.757H644.927C644.698 111.757 644.512 111.943 644.512 112.172C644.512 112.401 644.698 112.587 644.927 112.587H648.413C648.642 112.587 648.828 112.401 648.828 112.172C648.828 111.943 648.642 111.757 648.413 111.757Z" fill="#3D7FFC"/>
<path d="M650.239 115.243H629.821C629.592 115.243 629.406 115.429 629.406 115.658C629.406 115.887 629.592 116.073 629.821 116.073H650.239C650.468 116.073 650.654 115.887 650.654 115.658C650.654 115.429 650.468 115.243 650.239 115.243Z" fill="#9FC0FF"/>
</g>
</g>
<g clip-path="url(#clip5_3560_801)">
<g filter="url(#filter7_bd_3560_801)">
<rect x="81.3672" y="173.32" width="83" height="53.12" rx="1.98937" fill="url(#paint23_linear_3560_801)"/>
<rect x="81.4915" y="173.445" width="82.7513" height="52.8713" rx="1.86504" stroke="url(#paint24_linear_3560_801)" stroke-opacity="0.2" stroke-width="0.248672"/>
</g>
<g style="mix-blend-mode:overlay">
<rect x="81.3672" y="183.446" width="83" height="42.828" fill="#A2C6FF" fill-opacity="0.6"/>
</g>
<path opacity="0.3" d="M86.1816 189.918C86.1816 189.094 86.8496 188.426 87.6737 188.426H158.062C158.886 188.426 159.554 189.094 159.554 189.918V226.44H86.1816V189.918Z" fill="#022455"/>
<g style="mix-blend-mode:overlay">
<path fill-rule="evenodd" clip-rule="evenodd" d="M96.4727 178.051C96.4727 177.089 97.3299 176.308 98.3874 176.308H157.638C158.695 176.308 159.553 177.089 159.553 178.051C159.553 179.014 158.695 179.794 157.638 179.794L98.3874 179.794C97.3299 179.794 96.4727 179.014 96.4727 178.051Z" fill="#A2C6FF" fill-opacity="0.6"/>
</g>
<path d="M86.6796 177.968C86.6796 178.332 86.3794 178.632 86.0156 178.632C85.6517 178.632 85.3516 178.332 85.3516 177.968C85.3516 177.604 85.6517 177.304 86.0156 177.304C86.3794 177.304 86.6796 177.604 86.6796 177.968Z" fill="white"/>
<path d="M89.4999 177.968C89.4999 178.332 89.1997 178.632 88.8359 178.632C88.472 178.632 88.1719 178.332 88.1719 177.968C88.1719 177.604 88.472 177.304 88.8359 177.304C89.2088 177.304 89.4999 177.604 89.4999 177.968Z" fill="white"/>
<path d="M92.3202 177.968C92.3202 178.332 92.02 178.632 91.6562 178.632C91.2924 178.632 90.9922 178.332 90.9922 177.968C90.9922 177.604 91.2924 177.304 91.6562 177.304C92.02 177.304 92.3202 177.604 92.3202 177.968Z" fill="white"/>
<g style="mix-blend-mode:color-dodge" opacity="0.7">
<path d="M127.267 191.912H90.083C89.8538 191.912 89.668 192.098 89.668 192.327C89.668 192.557 89.8538 192.742 90.083 192.742H127.267C127.496 192.742 127.682 192.557 127.682 192.327C127.682 192.098 127.496 191.912 127.267 191.912Z" fill="#E7EEFF"/>
<path d="M143.701 225.61H106.517C106.287 225.61 106.102 225.796 106.102 226.025C106.102 226.255 106.287 226.44 106.517 226.44H143.701C143.93 226.44 144.116 226.255 144.116 226.025C144.116 225.796 143.93 225.61 143.701 225.61Z" fill="#9FC0FF"/>
<path d="M140.546 195.398H103.362C103.133 195.398 102.947 195.584 102.947 195.813C102.947 196.043 103.133 196.228 103.362 196.228H140.546C140.775 196.228 140.961 196.043 140.961 195.813C140.961 195.584 140.775 195.398 140.546 195.398Z" fill="#9FC0FF"/>
<path d="M150.508 195.398H143.868C143.639 195.398 143.453 195.584 143.453 195.813C143.453 196.043 143.639 196.228 143.868 196.228H150.508C150.737 196.228 150.923 196.043 150.923 195.813C150.923 195.584 150.737 195.398 150.508 195.398Z" fill="#3D7FFC"/>
<path d="M116.31 198.552H103.362C103.133 198.552 102.947 198.738 102.947 198.967C102.947 199.197 103.133 199.382 103.362 199.382H116.31C116.539 199.382 116.725 199.197 116.725 198.967C116.725 198.738 116.539 198.552 116.31 198.552Z" fill="#E7EEFF"/>
<path d="M129.26 198.552H119.964C119.735 198.552 119.549 198.738 119.549 198.967C119.549 199.197 119.735 199.382 119.964 199.382H129.26C129.489 199.382 129.675 199.197 129.675 198.967C129.675 198.738 129.489 198.552 129.26 198.552Z" fill="#3D7FFC"/>
<path d="M147.187 198.552H133.409C133.18 198.552 132.994 198.738 132.994 198.967C132.994 199.197 133.18 199.382 133.409 199.382H147.187C147.416 199.382 147.602 199.197 147.602 198.967C147.602 198.738 147.416 198.552 147.187 198.552Z" fill="#9FC0FF"/>
<path d="M143.037 202.204H116.478C116.248 202.204 116.062 202.39 116.062 202.619C116.062 202.849 116.248 203.034 116.478 203.034H143.038C143.267 203.034 143.452 202.849 143.452 202.619C143.452 202.39 143.267 202.204 143.037 202.204Z" fill="#9FC0FF"/>
<path d="M112.659 202.204H109.173C108.944 202.204 108.758 202.39 108.758 202.619C108.758 202.849 108.944 203.034 109.173 203.034H112.659C112.888 203.034 113.074 202.849 113.074 202.619C113.074 202.39 112.888 202.204 112.659 202.204Z" fill="#3D7FFC"/>
<path d="M129.591 205.69H109.173C108.944 205.69 108.758 205.876 108.758 206.105C108.758 206.335 108.944 206.52 109.173 206.52H129.591C129.82 206.52 130.006 206.335 130.006 206.105C130.006 205.876 129.82 205.69 129.591 205.69Z" fill="#E7EEFF"/>
<path d="M139.22 208.678H102.036C101.807 208.678 101.621 208.864 101.621 209.093C101.621 209.323 101.807 209.508 102.036 209.508H139.22C139.449 209.508 139.635 209.323 139.635 209.093C139.635 208.864 139.449 208.678 139.22 208.678Z" fill="#3D7FFC"/>
<path d="M140.546 212.164H103.362C103.133 212.164 102.947 212.35 102.947 212.579C102.947 212.809 103.133 212.994 103.362 212.994H140.546C140.775 212.994 140.961 212.809 140.961 212.579C140.961 212.35 140.775 212.164 140.546 212.164Z" fill="#9FC0FF"/>
<path d="M150.508 212.164H143.868C143.639 212.164 143.453 212.35 143.453 212.579C143.453 212.809 143.639 212.994 143.868 212.994H150.508C150.737 212.994 150.923 212.809 150.923 212.579C150.923 212.35 150.737 212.164 150.508 212.164Z" fill="#E7EEFF"/>
<path d="M116.31 215.484H103.362C103.133 215.484 102.947 215.67 102.947 215.899C102.947 216.129 103.133 216.314 103.362 216.314H116.31C116.539 216.314 116.725 216.129 116.725 215.899C116.725 215.67 116.539 215.484 116.31 215.484Z" fill="#E7EEFF"/>
<path d="M129.26 215.484H119.964C119.735 215.484 119.549 215.67 119.549 215.899C119.549 216.129 119.735 216.314 119.964 216.314H129.26C129.489 216.314 129.675 216.129 129.675 215.899C129.675 215.67 129.489 215.484 129.26 215.484Z" fill="#3D7FFC"/>
<path d="M147.187 215.484H133.409C133.18 215.484 132.994 215.67 132.994 215.899C132.994 216.129 133.18 216.314 133.409 216.314H147.187C147.416 216.314 147.602 216.129 147.602 215.899C147.602 215.67 147.416 215.484 147.187 215.484Z" fill="#9FC0FF"/>
<path d="M143.037 218.97H116.478C116.248 218.97 116.062 219.156 116.062 219.385C116.062 219.615 116.248 219.8 116.478 219.8H143.038C143.267 219.8 143.452 219.615 143.452 219.385C143.452 219.156 143.267 218.97 143.037 218.97Z" fill="#9FC0FF"/>
<path d="M112.659 218.97H109.173C108.944 218.97 108.758 219.156 108.758 219.385C108.758 219.615 108.944 219.8 109.173 219.8H112.659C112.888 219.8 113.074 219.615 113.074 219.385C113.074 219.156 112.888 218.97 112.659 218.97Z" fill="#3D7FFC"/>
<path d="M114.485 222.456H94.0673C93.8381 222.456 93.6523 222.642 93.6523 222.871C93.6523 223.101 93.8381 223.286 94.0673 223.286H114.485C114.715 223.286 114.9 223.101 114.9 222.871C114.9 222.642 114.715 222.456 114.485 222.456Z" fill="#9FC0FF"/>
</g>
</g>
<g clip-path="url(#clip6_3560_801)">
<g filter="url(#filter8_bd_3560_801)">
<rect x="617.121" y="173.32" width="83" height="53.12" rx="1.98937" fill="url(#paint25_linear_3560_801)"/>
<rect x="617.245" y="173.445" width="82.7513" height="52.8713" rx="1.86504" stroke="url(#paint26_linear_3560_801)" stroke-opacity="0.2" stroke-width="0.248672"/>
</g>
<g style="mix-blend-mode:overlay">
<rect x="617.121" y="183.446" width="83" height="42.828" fill="#A2C6FF" fill-opacity="0.6"/>
</g>
<path opacity="0.3" d="M621.936 189.918C621.936 189.094 622.604 188.426 623.428 188.426H693.816C694.64 188.426 695.308 189.094 695.308 189.918V226.44H621.936V189.918Z" fill="#022455"/>
<g style="mix-blend-mode:overlay">
<path fill-rule="evenodd" clip-rule="evenodd" d="M632.227 178.051C632.227 177.089 633.084 176.308 634.141 176.308H693.392C694.449 176.308 695.307 177.089 695.307 178.051C695.307 179.014 694.449 179.794 693.392 179.794L634.141 179.794C633.084 179.794 632.227 179.014 632.227 178.051Z" fill="#A2C6FF" fill-opacity="0.6"/>
</g>
<path d="M622.433 177.968C622.433 178.332 622.133 178.632 621.769 178.632C621.406 178.632 621.105 178.332 621.105 177.968C621.105 177.604 621.406 177.304 621.769 177.304C622.133 177.304 622.433 177.604 622.433 177.968Z" fill="white"/>
<path d="M625.254 177.968C625.254 178.332 624.954 178.632 624.59 178.632C624.226 178.632 623.926 178.332 623.926 177.968C623.926 177.604 624.226 177.304 624.59 177.304C624.963 177.304 625.254 177.604 625.254 177.968Z" fill="white"/>
<path d="M628.074 177.968C628.074 178.332 627.774 178.632 627.41 178.632C627.046 178.632 626.746 178.332 626.746 177.968C626.746 177.604 627.046 177.304 627.41 177.304C627.774 177.304 628.074 177.604 628.074 177.968Z" fill="white"/>
<g style="mix-blend-mode:color-dodge" opacity="0.7">
<path d="M663.021 191.912H625.837C625.608 191.912 625.422 192.098 625.422 192.327C625.422 192.557 625.608 192.742 625.837 192.742H663.021C663.25 192.742 663.436 192.557 663.436 192.327C663.436 192.098 663.25 191.912 663.021 191.912Z" fill="#E7EEFF"/>
<path d="M679.454 225.61H642.27C642.041 225.61 641.855 225.796 641.855 226.025C641.855 226.255 642.041 226.44 642.27 226.44H679.454C679.684 226.44 679.869 226.255 679.869 226.025C679.869 225.796 679.684 225.61 679.454 225.61Z" fill="#9FC0FF"/>
<path d="M676.3 195.398H639.116C638.887 195.398 638.701 195.584 638.701 195.813C638.701 196.043 638.887 196.228 639.116 196.228H676.3C676.529 196.228 676.715 196.043 676.715 195.813C676.715 195.584 676.529 195.398 676.3 195.398Z" fill="#9FC0FF"/>
<path d="M686.262 195.398H679.622C679.393 195.398 679.207 195.584 679.207 195.813C679.207 196.043 679.393 196.228 679.622 196.228H686.262C686.491 196.228 686.677 196.043 686.677 195.813C686.677 195.584 686.491 195.398 686.262 195.398Z" fill="#3D7FFC"/>
<path d="M652.064 198.552H639.116C638.887 198.552 638.701 198.738 638.701 198.967C638.701 199.197 638.887 199.382 639.116 199.382H652.064C652.293 199.382 652.479 199.197 652.479 198.967C652.479 198.738 652.293 198.552 652.064 198.552Z" fill="#E7EEFF"/>
<path d="M665.014 198.552H655.718C655.489 198.552 655.303 198.738 655.303 198.967C655.303 199.197 655.489 199.382 655.718 199.382H665.014C665.243 199.382 665.429 199.197 665.429 198.967C665.429 198.738 665.243 198.552 665.014 198.552Z" fill="#3D7FFC"/>
<path d="M682.941 198.552H669.163C668.934 198.552 668.748 198.738 668.748 198.967C668.748 199.197 668.934 199.382 669.163 199.382H682.941C683.17 199.382 683.356 199.197 683.356 198.967C683.356 198.738 683.17 198.552 682.941 198.552Z" fill="#9FC0FF"/>
<path d="M678.791 202.204H652.231C652.002 202.204 651.816 202.39 651.816 202.619C651.816 202.849 652.002 203.034 652.231 203.034H678.791C679.021 203.034 679.206 202.849 679.206 202.619C679.206 202.39 679.021 202.204 678.791 202.204Z" fill="#9FC0FF"/>
<path d="M648.413 202.204H644.927C644.698 202.204 644.512 202.39 644.512 202.619C644.512 202.849 644.698 203.034 644.927 203.034H648.413C648.642 203.034 648.828 202.849 648.828 202.619C648.828 202.39 648.642 202.204 648.413 202.204Z" fill="#3D7FFC"/>
<path d="M665.345 205.69H644.927C644.698 205.69 644.512 205.876 644.512 206.105C644.512 206.335 644.698 206.52 644.927 206.52H665.345C665.574 206.52 665.76 206.335 665.76 206.105C665.76 205.876 665.574 205.69 665.345 205.69Z" fill="#E7EEFF"/>
<path d="M674.974 208.678H637.79C637.561 208.678 637.375 208.864 637.375 209.093C637.375 209.323 637.561 209.508 637.79 209.508H674.974C675.203 209.508 675.389 209.323 675.389 209.093C675.389 208.864 675.203 208.678 674.974 208.678Z" fill="#3D7FFC"/>
<path d="M676.3 212.164H639.116C638.887 212.164 638.701 212.35 638.701 212.579C638.701 212.809 638.887 212.994 639.116 212.994H676.3C676.529 212.994 676.715 212.809 676.715 212.579C676.715 212.35 676.529 212.164 676.3 212.164Z" fill="#9FC0FF"/>
<path d="M686.262 212.164H679.622C679.393 212.164 679.207 212.35 679.207 212.579C679.207 212.809 679.393 212.994 679.622 212.994H686.262C686.491 212.994 686.677 212.809 686.677 212.579C686.677 212.35 686.491 212.164 686.262 212.164Z" fill="#E7EEFF"/>
<path d="M652.064 215.484H639.116C638.887 215.484 638.701 215.67 638.701 215.899C638.701 216.129 638.887 216.314 639.116 216.314H652.064C652.293 216.314 652.479 216.129 652.479 215.899C652.479 215.67 652.293 215.484 652.064 215.484Z" fill="#E7EEFF"/>
<path d="M665.014 215.484H655.718C655.489 215.484 655.303 215.67 655.303 215.899C655.303 216.129 655.489 216.314 655.718 216.314H665.014C665.243 216.314 665.429 216.129 665.429 215.899C665.429 215.67 665.243 215.484 665.014 215.484Z" fill="#3D7FFC"/>
<path d="M682.941 215.484H669.163C668.934 215.484 668.748 215.67 668.748 215.899C668.748 216.129 668.934 216.314 669.163 216.314H682.941C683.17 216.314 683.356 216.129 683.356 215.899C683.356 215.67 683.17 215.484 682.941 215.484Z" fill="#9FC0FF"/>
<path d="M678.791 218.97H652.231C652.002 218.97 651.816 219.156 651.816 219.385C651.816 219.615 652.002 219.8 652.231 219.8H678.791C679.021 219.8 679.206 219.615 679.206 219.385C679.206 219.156 679.021 218.97 678.791 218.97Z" fill="#9FC0FF"/>
<path d="M648.413 218.97H644.927C644.698 218.97 644.512 219.156 644.512 219.385C644.512 219.615 644.698 219.8 644.927 219.8H648.413C648.642 219.8 648.828 219.615 648.828 219.385C648.828 219.156 648.642 218.97 648.413 218.97Z" fill="#3D7FFC"/>
<path d="M650.239 222.456H629.821C629.592 222.456 629.406 222.642 629.406 222.871C629.406 223.101 629.592 223.286 629.821 223.286H650.239C650.468 223.286 650.654 223.101 650.654 222.871C650.654 222.642 650.468 222.456 650.239 222.456Z" fill="#9FC0FF"/>
</g>
</g>
<g clip-path="url(#clip7_3560_801)">
<g filter="url(#filter9_bd_3560_801)">
<rect x="81.3672" y="280.533" width="83" height="53.12" rx="1.98937" fill="url(#paint27_linear_3560_801)"/>
<rect x="81.4915" y="280.658" width="82.7513" height="52.8713" rx="1.86504" stroke="url(#paint28_linear_3560_801)" stroke-opacity="0.2" stroke-width="0.248672"/>
</g>
<g style="mix-blend-mode:overlay">
<rect x="81.3672" y="290.659" width="83" height="42.828" fill="#A2C6FF" fill-opacity="0.6"/>
</g>
<path opacity="0.3" d="M86.1816 297.131C86.1816 296.307 86.8496 295.639 87.6737 295.639H158.062C158.886 295.639 159.554 296.307 159.554 297.131V333.653H86.1816V297.131Z" fill="#022455"/>
<g style="mix-blend-mode:overlay">
<path fill-rule="evenodd" clip-rule="evenodd" d="M96.4727 285.264C96.4727 284.302 97.3299 283.521 98.3874 283.521H157.638C158.695 283.521 159.553 284.302 159.553 285.264C159.553 286.227 158.695 287.007 157.638 287.007L98.3874 287.007C97.3299 287.007 96.4727 286.227 96.4727 285.264Z" fill="#A2C6FF" fill-opacity="0.6"/>
</g>
<path d="M86.6796 285.181C86.6796 285.545 86.3794 285.845 86.0156 285.845C85.6517 285.845 85.3516 285.545 85.3516 285.181C85.3516 284.817 85.6517 284.517 86.0156 284.517C86.3794 284.517 86.6796 284.817 86.6796 285.181Z" fill="white"/>
<path d="M89.4999 285.181C89.4999 285.545 89.1997 285.845 88.8359 285.845C88.472 285.845 88.1719 285.545 88.1719 285.181C88.1719 284.817 88.472 284.517 88.8359 284.517C89.2088 284.517 89.4999 284.817 89.4999 285.181Z" fill="white"/>
<path d="M92.3202 285.181C92.3202 285.545 92.02 285.845 91.6562 285.845C91.2924 285.845 90.9922 285.545 90.9922 285.181C90.9922 284.817 91.2924 284.517 91.6562 284.517C92.02 284.517 92.3202 284.817 92.3202 285.181Z" fill="white"/>
<g style="mix-blend-mode:color-dodge" opacity="0.7">
<path d="M127.267 299.125H90.083C89.8538 299.125 89.668 299.311 89.668 299.54C89.668 299.769 89.8538 299.955 90.083 299.955H127.267C127.496 299.955 127.682 299.769 127.682 299.54C127.682 299.311 127.496 299.125 127.267 299.125Z" fill="#E7EEFF"/>
<path d="M143.701 332.823H106.517C106.287 332.823 106.102 333.009 106.102 333.238C106.102 333.467 106.287 333.653 106.517 333.653H143.701C143.93 333.653 144.116 333.467 144.116 333.238C144.116 333.009 143.93 332.823 143.701 332.823Z" fill="#9FC0FF"/>
<path d="M140.546 302.611H103.362C103.133 302.611 102.947 302.797 102.947 303.026C102.947 303.255 103.133 303.441 103.362 303.441H140.546C140.775 303.441 140.961 303.255 140.961 303.026C140.961 302.797 140.775 302.611 140.546 302.611Z" fill="#9FC0FF"/>
<path d="M150.508 302.611H143.868C143.639 302.611 143.453 302.797 143.453 303.026C143.453 303.255 143.639 303.441 143.868 303.441H150.508C150.737 303.441 150.923 303.255 150.923 303.026C150.923 302.797 150.737 302.611 150.508 302.611Z" fill="#3D7FFC"/>
<path d="M116.31 305.765H103.362C103.133 305.765 102.947 305.951 102.947 306.18C102.947 306.409 103.133 306.595 103.362 306.595H116.31C116.539 306.595 116.725 306.409 116.725 306.18C116.725 305.951 116.539 305.765 116.31 305.765Z" fill="#E7EEFF"/>
<path d="M129.26 305.765H119.964C119.735 305.765 119.549 305.951 119.549 306.18C119.549 306.409 119.735 306.595 119.964 306.595H129.26C129.489 306.595 129.675 306.409 129.675 306.18C129.675 305.951 129.489 305.765 129.26 305.765Z" fill="#3D7FFC"/>
<path d="M147.187 305.765H133.409C133.18 305.765 132.994 305.951 132.994 306.18C132.994 306.409 133.18 306.595 133.409 306.595H147.187C147.416 306.595 147.602 306.409 147.602 306.18C147.602 305.951 147.416 305.765 147.187 305.765Z" fill="#9FC0FF"/>
<path d="M143.037 309.417H116.478C116.248 309.417 116.062 309.603 116.062 309.832C116.062 310.061 116.248 310.247 116.478 310.247H143.038C143.267 310.247 143.452 310.061 143.452 309.832C143.452 309.603 143.267 309.417 143.037 309.417Z" fill="#9FC0FF"/>
<path d="M112.659 309.417H109.173C108.944 309.417 108.758 309.603 108.758 309.832C108.758 310.061 108.944 310.247 109.173 310.247H112.659C112.888 310.247 113.074 310.061 113.074 309.832C113.074 309.603 112.888 309.417 112.659 309.417Z" fill="#3D7FFC"/>
<path d="M129.591 312.903H109.173C108.944 312.903 108.758 313.089 108.758 313.318C108.758 313.547 108.944 313.733 109.173 313.733H129.591C129.82 313.733 130.006 313.547 130.006 313.318C130.006 313.089 129.82 312.903 129.591 312.903Z" fill="#E7EEFF"/>
<path d="M139.22 315.891H102.036C101.807 315.891 101.621 316.077 101.621 316.306C101.621 316.535 101.807 316.721 102.036 316.721H139.22C139.449 316.721 139.635 316.535 139.635 316.306C139.635 316.077 139.449 315.891 139.22 315.891Z" fill="#3D7FFC"/>
<path d="M140.546 319.377H103.362C103.133 319.377 102.947 319.563 102.947 319.792C102.947 320.021 103.133 320.207 103.362 320.207H140.546C140.775 320.207 140.961 320.021 140.961 319.792C140.961 319.563 140.775 319.377 140.546 319.377Z" fill="#9FC0FF"/>
<path d="M150.508 319.377H143.868C143.639 319.377 143.453 319.563 143.453 319.792C143.453 320.021 143.639 320.207 143.868 320.207H150.508C150.737 320.207 150.923 320.021 150.923 319.792C150.923 319.563 150.737 319.377 150.508 319.377Z" fill="#E7EEFF"/>
<path d="M116.31 322.697H103.362C103.133 322.697 102.947 322.883 102.947 323.112C102.947 323.341 103.133 323.527 103.362 323.527H116.31C116.539 323.527 116.725 323.341 116.725 323.112C116.725 322.883 116.539 322.697 116.31 322.697Z" fill="#E7EEFF"/>
<path d="M129.26 322.697H119.964C119.735 322.697 119.549 322.883 119.549 323.112C119.549 323.341 119.735 323.527 119.964 323.527H129.26C129.489 323.527 129.675 323.341 129.675 323.112C129.675 322.883 129.489 322.697 129.26 322.697Z" fill="#3D7FFC"/>
<path d="M147.187 322.697H133.409C133.18 322.697 132.994 322.883 132.994 323.112C132.994 323.341 133.18 323.527 133.409 323.527H147.187C147.416 323.527 147.602 323.341 147.602 323.112C147.602 322.883 147.416 322.697 147.187 322.697Z" fill="#9FC0FF"/>
<path d="M143.037 326.183H116.478C116.248 326.183 116.062 326.369 116.062 326.598C116.062 326.827 116.248 327.013 116.478 327.013H143.038C143.267 327.013 143.452 326.827 143.452 326.598C143.452 326.369 143.267 326.183 143.037 326.183Z" fill="#9FC0FF"/>
<path d="M112.659 326.183H109.173C108.944 326.183 108.758 326.369 108.758 326.598C108.758 326.827 108.944 327.013 109.173 327.013H112.659C112.888 327.013 113.074 326.827 113.074 326.598C113.074 326.369 112.888 326.183 112.659 326.183Z" fill="#3D7FFC"/>
<path d="M114.485 329.669H94.0673C93.8381 329.669 93.6523 329.855 93.6523 330.084C93.6523 330.313 93.8381 330.499 94.0673 330.499H114.485C114.715 330.499 114.9 330.313 114.9 330.084C114.9 329.855 114.715 329.669 114.485 329.669Z" fill="#9FC0FF"/>
</g>
</g>
<g clip-path="url(#clip8_3560_801)">
<g filter="url(#filter10_bd_3560_801)">
<rect x="617.121" y="280.533" width="83" height="53.12" rx="1.98937" fill="url(#paint29_linear_3560_801)"/>
<rect x="617.245" y="280.658" width="82.7513" height="52.8713" rx="1.86504" stroke="url(#paint30_linear_3560_801)" stroke-opacity="0.2" stroke-width="0.248672"/>
</g>
<g style="mix-blend-mode:overlay">
<rect x="617.121" y="290.659" width="83" height="42.828" fill="#A2C6FF" fill-opacity="0.6"/>
</g>
<path opacity="0.3" d="M621.936 297.131C621.936 296.307 622.604 295.639 623.428 295.639H693.816C694.64 295.639 695.308 296.307 695.308 297.131V333.653H621.936V297.131Z" fill="#022455"/>
<g style="mix-blend-mode:overlay">
<path fill-rule="evenodd" clip-rule="evenodd" d="M632.227 285.264C632.227 284.302 633.084 283.521 634.141 283.521H693.392C694.449 283.521 695.307 284.302 695.307 285.264C695.307 286.227 694.449 287.007 693.392 287.007L634.141 287.007C633.084 287.007 632.227 286.227 632.227 285.264Z" fill="#A2C6FF" fill-opacity="0.6"/>
</g>
<path d="M622.433 285.181C622.433 285.545 622.133 285.845 621.769 285.845C621.406 285.845 621.105 285.545 621.105 285.181C621.105 284.817 621.406 284.517 621.769 284.517C622.133 284.517 622.433 284.817 622.433 285.181Z" fill="white"/>
<path d="M625.254 285.181C625.254 285.545 624.954 285.845 624.59 285.845C624.226 285.845 623.926 285.545 623.926 285.181C623.926 284.817 624.226 284.517 624.59 284.517C624.963 284.517 625.254 284.817 625.254 285.181Z" fill="white"/>
<path d="M628.074 285.181C628.074 285.545 627.774 285.845 627.41 285.845C627.046 285.845 626.746 285.545 626.746 285.181C626.746 284.817 627.046 284.517 627.41 284.517C627.774 284.517 628.074 284.817 628.074 285.181Z" fill="white"/>
<g style="mix-blend-mode:color-dodge" opacity="0.7">
<path d="M663.021 299.125H625.837C625.608 299.125 625.422 299.311 625.422 299.54C625.422 299.769 625.608 299.955 625.837 299.955H663.021C663.25 299.955 663.436 299.769 663.436 299.54C663.436 299.311 663.25 299.125 663.021 299.125Z" fill="#E7EEFF"/>
<path d="M679.454 332.823H642.27C642.041 332.823 641.855 333.009 641.855 333.238C641.855 333.467 642.041 333.653 642.27 333.653H679.454C679.684 333.653 679.869 333.467 679.869 333.238C679.869 333.009 679.684 332.823 679.454 332.823Z" fill="#9FC0FF"/>
<path d="M676.3 302.611H639.116C638.887 302.611 638.701 302.797 638.701 303.026C638.701 303.255 638.887 303.441 639.116 303.441H676.3C676.529 303.441 676.715 303.255 676.715 303.026C676.715 302.797 676.529 302.611 676.3 302.611Z" fill="#9FC0FF"/>
<path d="M686.262 302.611H679.622C679.393 302.611 679.207 302.797 679.207 303.026C679.207 303.255 679.393 303.441 679.622 303.441H686.262C686.491 303.441 686.677 303.255 686.677 303.026C686.677 302.797 686.491 302.611 686.262 302.611Z" fill="#3D7FFC"/>
<path d="M652.064 305.765H639.116C638.887 305.765 638.701 305.951 638.701 306.18C638.701 306.409 638.887 306.595 639.116 306.595H652.064C652.293 306.595 652.479 306.409 652.479 306.18C652.479 305.951 652.293 305.765 652.064 305.765Z" fill="#E7EEFF"/>
<path d="M665.014 305.765H655.718C655.489 305.765 655.303 305.951 655.303 306.18C655.303 306.409 655.489 306.595 655.718 306.595H665.014C665.243 306.595 665.429 306.409 665.429 306.18C665.429 305.951 665.243 305.765 665.014 305.765Z" fill="#3D7FFC"/>
<path d="M682.941 305.765H669.163C668.934 305.765 668.748 305.951 668.748 306.18C668.748 306.409 668.934 306.595 669.163 306.595H682.941C683.17 306.595 683.356 306.409 683.356 306.18C683.356 305.951 683.17 305.765 682.941 305.765Z" fill="#9FC0FF"/>
<path d="M678.791 309.417H652.231C652.002 309.417 651.816 309.603 651.816 309.832C651.816 310.061 652.002 310.247 652.231 310.247H678.791C679.021 310.247 679.206 310.061 679.206 309.832C679.206 309.603 679.021 309.417 678.791 309.417Z" fill="#9FC0FF"/>
<path d="M648.413 309.417H644.927C644.698 309.417 644.512 309.603 644.512 309.832C644.512 310.061 644.698 310.247 644.927 310.247H648.413C648.642 310.247 648.828 310.061 648.828 309.832C648.828 309.603 648.642 309.417 648.413 309.417Z" fill="#3D7FFC"/>
<path d="M665.345 312.903H644.927C644.698 312.903 644.512 313.089 644.512 313.318C644.512 313.547 644.698 313.733 644.927 313.733H665.345C665.574 313.733 665.76 313.547 665.76 313.318C665.76 313.089 665.574 312.903 665.345 312.903Z" fill="#E7EEFF"/>
<path d="M674.974 315.891H637.79C637.561 315.891 637.375 316.077 637.375 316.306C637.375 316.535 637.561 316.721 637.79 316.721H674.974C675.203 316.721 675.389 316.535 675.389 316.306C675.389 316.077 675.203 315.891 674.974 315.891Z" fill="#3D7FFC"/>
<path d="M676.3 319.377H639.116C638.887 319.377 638.701 319.563 638.701 319.792C638.701 320.021 638.887 320.207 639.116 320.207H676.3C676.529 320.207 676.715 320.021 676.715 319.792C676.715 319.563 676.529 319.377 676.3 319.377Z" fill="#9FC0FF"/>
<path d="M686.262 319.377H679.622C679.393 319.377 679.207 319.563 679.207 319.792C679.207 320.021 679.393 320.207 679.622 320.207H686.262C686.491 320.207 686.677 320.021 686.677 319.792C686.677 319.563 686.491 319.377 686.262 319.377Z" fill="#E7EEFF"/>
<path d="M652.064 322.697H639.116C638.887 322.697 638.701 322.883 638.701 323.112C638.701 323.341 638.887 323.527 639.116 323.527H652.064C652.293 323.527 652.479 323.341 652.479 323.112C652.479 322.883 652.293 322.697 652.064 322.697Z" fill="#E7EEFF"/>
<path d="M665.014 322.697H655.718C655.489 322.697 655.303 322.883 655.303 323.112C655.303 323.341 655.489 323.527 655.718 323.527H665.014C665.243 323.527 665.429 323.341 665.429 323.112C665.429 322.883 665.243 322.697 665.014 322.697Z" fill="#3D7FFC"/>
<path d="M682.941 322.697H669.163C668.934 322.697 668.748 322.883 668.748 323.112C668.748 323.341 668.934 323.527 669.163 323.527H682.941C683.17 323.527 683.356 323.341 683.356 323.112C683.356 322.883 683.17 322.697 682.941 322.697Z" fill="#9FC0FF"/>
<path d="M678.791 326.183H652.231C652.002 326.183 651.816 326.369 651.816 326.598C651.816 326.827 652.002 327.013 652.231 327.013H678.791C679.021 327.013 679.206 326.827 679.206 326.598C679.206 326.369 679.021 326.183 678.791 326.183Z" fill="#9FC0FF"/>
<path d="M648.413 326.183H644.927C644.698 326.183 644.512 326.369 644.512 326.598C644.512 326.827 644.698 327.013 644.927 327.013H648.413C648.642 327.013 648.828 326.827 648.828 326.598C648.828 326.369 648.642 326.183 648.413 326.183Z" fill="#3D7FFC"/>
<path d="M650.239 329.669H629.821C629.592 329.669 629.406 329.855 629.406 330.084C629.406 330.313 629.592 330.499 629.821 330.499H650.239C650.468 330.499 650.654 330.313 650.654 330.084C650.654 329.855 650.468 329.669 650.239 329.669Z" fill="#9FC0FF"/>
</g>
</g>
</g>
<defs>
<filter id="filter0_d_3560_801" x="42.9671" y="-122.205" width="686.336" height="685.367" filterUnits="userSpaceOnUse" color-interpolation-filters="sRGB">
<feFlood flood-opacity="0" result="BackgroundImageFix"/>
<feColorMatrix in="SourceAlpha" type="matrix" values="0 0 0 0 0 0 0 0 0 0 0 0 0 0 0 0 0 0 127 0" result="hardAlpha"/>
<feOffset dx="-0.539733" dy="5.93706"/>
<feGaussianBlur stdDeviation="4.31786"/>
<feColorMatrix type="matrix" values="0 0 0 0 0.075 0 0 0 0 0.18 0 0 0 0 0.45 0 0 0 0.08 0"/>
<feBlend mode="normal" in2="BackgroundImageFix" result="effect1_dropShadow_3560_801"/>
<feBlend mode="normal" in="SourceGraphic" in2="effect1_dropShadow_3560_801" result="shape"/>
</filter>
<filter id="filter1_d_3560_801" x="87.391" y="-80.3177" width="603.709" height="602.861" filterUnits="userSpaceOnUse" color-interpolation-filters="sRGB">
<feFlood flood-opacity="0" result="BackgroundImageFix"/>
<feColorMatrix in="SourceAlpha" type="matrix" values="0 0 0 0 0 0 0 0 0 0 0 0 0 0 0 0 0 0 127 0" result="hardAlpha"/>
<feOffset dx="-0.597407" dy="6.57148"/>
<feGaussianBlur stdDeviation="4.77926"/>
<feColorMatrix type="matrix" values="0 0 0 0 0.075 0 0 0 0 0.18 0 0 0 0 0.45 0 0 0 0.08 0"/>
<feBlend mode="normal" in2="BackgroundImageFix" result="effect1_dropShadow_3560_801"/>
<feBlend mode="normal" in="SourceGraphic" in2="effect1_dropShadow_3560_801" result="shape"/>
</filter>
<filter id="filter2_d_3560_801" x="125.155" y="-41.4596" width="528.341" height="527.607" filterUnits="userSpaceOnUse" color-interpolation-filters="sRGB">
<feFlood flood-opacity="0" result="BackgroundImageFix"/>
<feColorMatrix in="SourceAlpha" type="matrix" values="0 0 0 0 0 0 0 0 0 0 0 0 0 0 0 0 0 0 127 0" result="hardAlpha"/>
<feOffset dx="-0.709387" dy="7.80325"/>
<feGaussianBlur stdDeviation="5.67509"/>
<feColorMatrix type="matrix" values="0 0 0 0 0.075 0 0 0 0 0.18 0 0 0 0 0.45 0 0 0 0.08 0"/>
<feBlend mode="normal" in2="BackgroundImageFix" result="effect1_dropShadow_3560_801"/>
<feBlend mode="normal" in="SourceGraphic" in2="effect1_dropShadow_3560_801" result="shape"/>
</filter>
<filter id="filter3_d_3560_801" x="166.399" y="1.95394" width="445.645" height="445.037" filterUnits="userSpaceOnUse" color-interpolation-filters="sRGB">
<feFlood flood-opacity="0" result="BackgroundImageFix"/>
<feColorMatrix in="SourceAlpha" type="matrix" values="0 0 0 0 0 0 0 0 0 0 0 0 0 0 0 0 0 0 127 0" result="hardAlpha"/>
<feOffset dx="-0.879884" dy="9.67872"/>
<feGaussianBlur stdDeviation="7.03907"/>
<feColorMatrix type="matrix" values="0 0 0 0 0.075 0 0 0 0 0.18 0 0 0 0 0.45 0 0 0 0.08 0"/>
<feBlend mode="normal" in2="BackgroundImageFix" result="effect1_dropShadow_3560_801"/>
<feBlend mode="normal" in="SourceGraphic" in2="effect1_dropShadow_3560_801" result="shape"/>
</filter>
<filter id="filter4_d_3560_801" x="217.451" y="99.9513" width="359.195" height="214.195" filterUnits="userSpaceOnUse" color-interpolation-filters="sRGB">
<feFlood flood-opacity="0" result="BackgroundImageFix"/>
<feColorMatrix in="SourceAlpha" type="matrix" values="0 0 0 0 0 0 0 0 0 0 0 0 0 0 0 0 0 0 127 0" result="hardAlpha"/>
<feOffset dx="7.0487" dy="7.0487"/>
<feGaussianBlur stdDeviation="7.0487"/>
<feColorMatrix type="matrix" values="0 0 0 0 0.0941177 0 0 0 0 0.188235 0 0 0 0 0.247059 0 0 0 0.15 0"/>
<feBlend mode="normal" in2="BackgroundImageFix" result="effect1_dropShadow_3560_801"/>
<feBlend mode="normal" in="SourceGraphic" in2="effect1_dropShadow_3560_801" result="shape"/>
</filter>
<filter id="filter5_bd_3560_801" x="69.9382" y="54.6784" width="105.858" height="75.9779" filterUnits="userSpaceOnUse" color-interpolation-filters="sRGB">
<feFlood flood-opacity="0" result="BackgroundImageFix"/>
<feGaussianBlur in="BackgroundImageFix" stdDeviation="5.71447"/>
<feComposite in2="SourceAlpha" operator="in" result="effect1_backgroundBlur_3560_801"/>
<feColorMatrix in="SourceAlpha" type="matrix" values="0 0 0 0 0 0 0 0 0 0 0 0 0 0 0 0 0 0 127 0" result="hardAlpha"/>
<feMorphology radius="0.410322" operator="erode" in="SourceAlpha" result="effect2_dropShadow_3560_801"/>
<feOffset dy="1.64129"/>
<feGaussianBlur stdDeviation="4.0668"/>
<feComposite in2="hardAlpha" operator="out"/>
<feColorMatrix type="matrix" values="0 0 0 0 0 0 0 0 0 0 0 0 0 0 0 0 0 0 0.2 0"/>
<feBlend mode="normal" in2="effect1_backgroundBlur_3560_801" result="effect2_dropShadow_3560_801"/>
<feBlend mode="normal" in="SourceGraphic" in2="effect2_dropShadow_3560_801" result="shape"/>
</filter>
<filter id="filter6_bd_3560_801" x="605.692" y="54.6784" width="105.858" height="75.9779" filterUnits="userSpaceOnUse" color-interpolation-filters="sRGB">
<feFlood flood-opacity="0" result="BackgroundImageFix"/>
<feGaussianBlur in="BackgroundImageFix" stdDeviation="5.71447"/>
<feComposite in2="SourceAlpha" operator="in" result="effect1_backgroundBlur_3560_801"/>
<feColorMatrix in="SourceAlpha" type="matrix" values="0 0 0 0 0 0 0 0 0 0 0 0 0 0 0 0 0 0 127 0" result="hardAlpha"/>
<feMorphology radius="0.410322" operator="erode" in="SourceAlpha" result="effect2_dropShadow_3560_801"/>
<feOffset dy="1.64129"/>
<feGaussianBlur stdDeviation="4.0668"/>
<feComposite in2="hardAlpha" operator="out"/>
<feColorMatrix type="matrix" values="0 0 0 0 0 0 0 0 0 0 0 0 0 0 0 0 0 0 0.2 0"/>
<feBlend mode="normal" in2="effect1_backgroundBlur_3560_801" result="effect2_dropShadow_3560_801"/>
<feBlend mode="normal" in="SourceGraphic" in2="effect2_dropShadow_3560_801" result="shape"/>
</filter>
<filter id="filter7_bd_3560_801" x="69.9382" y="161.891" width="105.858" height="75.9779" filterUnits="userSpaceOnUse" color-interpolation-filters="sRGB">
<feFlood flood-opacity="0" result="BackgroundImageFix"/>
<feGaussianBlur in="BackgroundImageFix" stdDeviation="5.71447"/>
<feComposite in2="SourceAlpha" operator="in" result="effect1_backgroundBlur_3560_801"/>
<feColorMatrix in="SourceAlpha" type="matrix" values="0 0 0 0 0 0 0 0 0 0 0 0 0 0 0 0 0 0 127 0" result="hardAlpha"/>
<feMorphology radius="0.410322" operator="erode" in="SourceAlpha" result="effect2_dropShadow_3560_801"/>
<feOffset dy="1.64129"/>
<feGaussianBlur stdDeviation="4.0668"/>
<feComposite in2="hardAlpha" operator="out"/>
<feColorMatrix type="matrix" values="0 0 0 0 0 0 0 0 0 0 0 0 0 0 0 0 0 0 0.2 0"/>
<feBlend mode="normal" in2="effect1_backgroundBlur_3560_801" result="effect2_dropShadow_3560_801"/>
<feBlend mode="normal" in="SourceGraphic" in2="effect2_dropShadow_3560_801" result="shape"/>
</filter>
<filter id="filter8_bd_3560_801" x="605.692" y="161.891" width="105.858" height="75.9779" filterUnits="userSpaceOnUse" color-interpolation-filters="sRGB">
<feFlood flood-opacity="0" result="BackgroundImageFix"/>
<feGaussianBlur in="BackgroundImageFix" stdDeviation="5.71447"/>
<feComposite in2="SourceAlpha" operator="in" result="effect1_backgroundBlur_3560_801"/>
<feColorMatrix in="SourceAlpha" type="matrix" values="0 0 0 0 0 0 0 0 0 0 0 0 0 0 0 0 0 0 127 0" result="hardAlpha"/>
<feMorphology radius="0.410322" operator="erode" in="SourceAlpha" result="effect2_dropShadow_3560_801"/>
<feOffset dy="1.64129"/>
<feGaussianBlur stdDeviation="4.0668"/>
<feComposite in2="hardAlpha" operator="out"/>
<feColorMatrix type="matrix" values="0 0 0 0 0 0 0 0 0 0 0 0 0 0 0 0 0 0 0.2 0"/>
<feBlend mode="normal" in2="effect1_backgroundBlur_3560_801" result="effect2_dropShadow_3560_801"/>
<feBlend mode="normal" in="SourceGraphic" in2="effect2_dropShadow_3560_801" result="shape"/>
</filter>
<filter id="filter9_bd_3560_801" x="69.9382" y="269.104" width="105.858" height="75.9779" filterUnits="userSpaceOnUse" color-interpolation-filters="sRGB">
<feFlood flood-opacity="0" result="BackgroundImageFix"/>
<feGaussianBlur in="BackgroundImageFix" stdDeviation="5.71447"/>
<feComposite in2="SourceAlpha" operator="in" result="effect1_backgroundBlur_3560_801"/>
<feColorMatrix in="SourceAlpha" type="matrix" values="0 0 0 0 0 0 0 0 0 0 0 0 0 0 0 0 0 0 127 0" result="hardAlpha"/>
<feMorphology radius="0.410322" operator="erode" in="SourceAlpha" result="effect2_dropShadow_3560_801"/>
<feOffset dy="1.64129"/>
<feGaussianBlur stdDeviation="4.0668"/>
<feComposite in2="hardAlpha" operator="out"/>
<feColorMatrix type="matrix" values="0 0 0 0 0 0 0 0 0 0 0 0 0 0 0 0 0 0 0.2 0"/>
<feBlend mode="normal" in2="effect1_backgroundBlur_3560_801" result="effect2_dropShadow_3560_801"/>
<feBlend mode="normal" in="SourceGraphic" in2="effect2_dropShadow_3560_801" result="shape"/>
</filter>
<filter id="filter10_bd_3560_801" x="605.692" y="269.104" width="105.858" height="75.9779" filterUnits="userSpaceOnUse" color-interpolation-filters="sRGB">
<feFlood flood-opacity="0" result="BackgroundImageFix"/>
<feGaussianBlur in="BackgroundImageFix" stdDeviation="5.71447"/>
<feComposite in2="SourceAlpha" operator="in" result="effect1_backgroundBlur_3560_801"/>
<feColorMatrix in="SourceAlpha" type="matrix" values="0 0 0 0 0 0 0 0 0 0 0 0 0 0 0 0 0 0 127 0" result="hardAlpha"/>
<feMorphology radius="0.410322" operator="erode" in="SourceAlpha" result="effect2_dropShadow_3560_801"/>
<feOffset dy="1.64129"/>
<feGaussianBlur stdDeviation="4.0668"/>
<feComposite in2="hardAlpha" operator="out"/>
<feColorMatrix type="matrix" values="0 0 0 0 0 0 0 0 0 0 0 0 0 0 0 0 0 0 0.2 0"/>
<feBlend mode="normal" in2="effect1_backgroundBlur_3560_801" result="effect2_dropShadow_3560_801"/>
<feBlend mode="normal" in="SourceGraphic" in2="effect2_dropShadow_3560_801" result="shape"/>
</filter>
<radialGradient id="paint0_radial_3560_801" cx="0" cy="0" r="1" gradientUnits="userSpaceOnUse" gradientTransform="translate(1.41713e-05 418.687) rotate(-57.2949) scale(531.782 588.419)">
<stop stop-color="#0941AB"/>
<stop offset="1" stop-color="#091B36" stop-opacity="0"/>
</radialGradient>
<radialGradient id="paint1_radial_3560_801" cx="0" cy="0" r="1" gradientUnits="userSpaceOnUse" gradientTransform="translate(796.78 -9.72212) rotate(139.994) scale(490.426 444.702)">
<stop stop-color="#0941AB"/>
<stop offset="1" stop-color="#091B36" stop-opacity="0"/>
</radialGradient>
<radialGradient id="paint2_radial_3560_801" cx="0" cy="0" r="1" gradientUnits="userSpaceOnUse" gradientTransform="translate(407.481 400) rotate(-90.1411) scale(400.001 528.853)">
<stop stop-color="#0941AB"/>
<stop offset="1" stop-color="#091B36" stop-opacity="0"/>
</radialGradient>
<linearGradient id="paint3_linear_3560_801" x1="389.843" y1="60.7025" x2="389.843" y2="357.559" gradientUnits="userSpaceOnUse">
<stop stop-color="#303B45" stop-opacity="0"/>
<stop offset="0.276042" stop-color="#0C1014" stop-opacity="0.744681"/>
<stop offset="0.489583" stop-color="#000203"/>
<stop offset="0.729167" stop-color="#0D1115" stop-opacity="0.72449"/>
<stop offset="1" stop-color="#303B45" stop-opacity="0"/>
</linearGradient>
<linearGradient id="paint4_linear_3560_801" x1="54.8648" y1="192.893" x2="720.042" y2="201.313" gradientUnits="userSpaceOnUse">
<stop stop-color="#15C1E6"/>
<stop offset="0.526042" stop-color="#1B4582"/>
<stop offset="1" stop-color="#15C1E6"/>
</linearGradient>
<linearGradient id="paint5_linear_3560_801" x1="99.5948" y1="195.604" x2="681.452" y2="202.969" gradientUnits="userSpaceOnUse">
<stop stop-color="#15C1E6"/>
<stop offset="0.526042" stop-color="#1B4582"/>
<stop offset="1" stop-color="#15C1E6"/>
</linearGradient>
<linearGradient id="paint6_linear_3560_801" x1="138.255" y1="198.113" x2="642.997" y2="204.502" gradientUnits="userSpaceOnUse">
<stop stop-color="#15C1E6"/>
<stop offset="0.526042" stop-color="#1B4582"/>
<stop offset="1" stop-color="#15C1E6"/>
</linearGradient>
<linearGradient id="paint7_linear_3560_801" x1="182.057" y1="201.22" x2="599.122" y2="206.499" gradientUnits="userSpaceOnUse">
<stop stop-color="#15C1E6"/>
<stop offset="0.526042" stop-color="#1B4582"/>
<stop offset="1" stop-color="#15C1E6"/>
</linearGradient>
<linearGradient id="paint8_linear_3560_801" x1="252.404" y1="107" x2="516.862" y2="339.132" gradientUnits="userSpaceOnUse">
<stop stop-color="#0C2966"/>
<stop offset="1" stop-color="#0045C9"/>
</linearGradient>
<linearGradient id="paint9_linear_3560_801" x1="521.58" y1="210.873" x2="257.196" y2="205.806" gradientUnits="userSpaceOnUse">
<stop stop-color="#15C1E6"/>
<stop offset="0.0923253" stop-color="#091B36" stop-opacity="0"/>
<stop offset="0.909898" stop-color="#091B36" stop-opacity="0"/>
<stop offset="1" stop-color="#15C1E6"/>
</linearGradient>
<linearGradient id="paint10_linear_3560_801" x1="109.382" y1="0.855018" x2="113.423" y2="223.749" gradientUnits="userSpaceOnUse">
<stop stop-color="#15C1E6"/>
<stop offset="0.143865" stop-color="#091B36" stop-opacity="0"/>
<stop offset="0.876247" stop-color="#091B36" stop-opacity="0"/>
<stop offset="1" stop-color="#15C1E6"/>
</linearGradient>
<linearGradient id="paint11_linear_3560_801" x1="84.9988" y1="-2.54409" x2="90.2714" y2="180.807" gradientUnits="userSpaceOnUse">
<stop stop-color="#15C1E6"/>
<stop offset="0.382702" stop-color="#091B36" stop-opacity="0"/>
<stop offset="0.641409" stop-color="#091B36" stop-opacity="0"/>
<stop offset="1" stop-color="#15C1E6"/>
</linearGradient>
<linearGradient id="paint12_linear_3560_801" x1="332.578" y1="208.995" x2="444.988" y2="208.995" gradientUnits="userSpaceOnUse">
<stop stop-color="#3D7FFC"/>
<stop offset="1" stop-color="#15C1E6"/>
</linearGradient>
<linearGradient id="paint13_linear_3560_801" x1="193.671" y1="115.344" x2="239.847" y2="129.934" gradientUnits="userSpaceOnUse">
<stop stop-color="#1B4A99" stop-opacity="0.7"/>
<stop offset="1" stop-color="#9FC0FF"/>
</linearGradient>
<linearGradient id="paint14_linear_3560_801" x1="192.81" y1="283.175" x2="238.988" y2="268.583" gradientUnits="userSpaceOnUse">
<stop offset="0.14" stop-color="#1B4A99" stop-opacity="0.7"/>
<stop offset="1" stop-color="#9FC0FF"/>
</linearGradient>
<linearGradient id="paint15_linear_3560_801" x1="181.531" y1="214.362" x2="226.523" y2="195.701" gradientUnits="userSpaceOnUse">
<stop stop-color="#1B4A99" stop-opacity="0.3"/>
<stop offset="1" stop-color="#9FC0FF"/>
</linearGradient>
<linearGradient id="paint16_linear_3560_801" x1="587.819" y1="283.656" x2="541.643" y2="269.066" gradientUnits="userSpaceOnUse">
<stop stop-color="#1B4A99" stop-opacity="0.7"/>
<stop offset="1" stop-color="#9FC0FF"/>
</linearGradient>
<linearGradient id="paint17_linear_3560_801" x1="588.68" y1="115.825" x2="542.503" y2="130.417" gradientUnits="userSpaceOnUse">
<stop stop-color="#1B4A99" stop-opacity="0.7"/>
<stop offset="1" stop-color="#9FC0FF"/>
</linearGradient>
<linearGradient id="paint18_linear_3560_801" x1="599.959" y1="184.638" x2="554.967" y2="203.299" gradientUnits="userSpaceOnUse">
<stop stop-color="#1B4A99" stop-opacity="0.3"/>
<stop offset="1" stop-color="#9FC0FF"/>
</linearGradient>
<linearGradient id="paint19_linear_3560_801" x1="93.3784" y1="63.8239" x2="164.164" y2="116.356" gradientUnits="userSpaceOnUse">
<stop offset="0.28" stop-color="#092349"/>
<stop offset="1" stop-color="#003C97"/>
</linearGradient>
<linearGradient id="paint20_linear_3560_801" x1="92.65" y1="67.1697" x2="153.234" y2="117.808" gradientUnits="userSpaceOnUse">
<stop stop-color="white" stop-opacity="0"/>
<stop offset="1" stop-color="#BBB7FF"/>
</linearGradient>
<linearGradient id="paint21_linear_3560_801" x1="629.132" y1="63.8239" x2="699.918" y2="116.356" gradientUnits="userSpaceOnUse">
<stop offset="0.28" stop-color="#092349"/>
<stop offset="1" stop-color="#003C97"/>
</linearGradient>
<linearGradient id="paint22_linear_3560_801" x1="628.404" y1="67.1697" x2="688.987" y2="117.808" gradientUnits="userSpaceOnUse">
<stop stop-color="white" stop-opacity="0"/>
<stop offset="1" stop-color="#BBB7FF"/>
</linearGradient>
<linearGradient id="paint23_linear_3560_801" x1="93.3784" y1="171.037" x2="164.164" y2="223.569" gradientUnits="userSpaceOnUse">
<stop offset="0.28" stop-color="#092349"/>
<stop offset="1" stop-color="#003C97"/>
</linearGradient>
<linearGradient id="paint24_linear_3560_801" x1="92.65" y1="174.383" x2="153.234" y2="225.021" gradientUnits="userSpaceOnUse">
<stop stop-color="white" stop-opacity="0"/>
<stop offset="1" stop-color="#BBB7FF"/>
</linearGradient>
<linearGradient id="paint25_linear_3560_801" x1="629.132" y1="171.037" x2="699.918" y2="223.569" gradientUnits="userSpaceOnUse">
<stop offset="0.28" stop-color="#092349"/>
<stop offset="1" stop-color="#003C97"/>
</linearGradient>
<linearGradient id="paint26_linear_3560_801" x1="628.404" y1="174.383" x2="688.987" y2="225.021" gradientUnits="userSpaceOnUse">
<stop stop-color="white" stop-opacity="0"/>
<stop offset="1" stop-color="#BBB7FF"/>
</linearGradient>
<linearGradient id="paint27_linear_3560_801" x1="93.3784" y1="278.25" x2="164.164" y2="330.782" gradientUnits="userSpaceOnUse">
<stop offset="0.28" stop-color="#092349"/>
<stop offset="1" stop-color="#003C97"/>
</linearGradient>
<linearGradient id="paint28_linear_3560_801" x1="92.65" y1="281.596" x2="153.234" y2="332.233" gradientUnits="userSpaceOnUse">
<stop stop-color="white" stop-opacity="0"/>
<stop offset="1" stop-color="#BBB7FF"/>
</linearGradient>
<linearGradient id="paint29_linear_3560_801" x1="629.132" y1="278.25" x2="699.918" y2="330.782" gradientUnits="userSpaceOnUse">
<stop offset="0.28" stop-color="#092349"/>
<stop offset="1" stop-color="#003C97"/>
</linearGradient>
<linearGradient id="paint30_linear_3560_801" x1="628.404" y1="281.596" x2="688.987" y2="332.233" gradientUnits="userSpaceOnUse">
<stop stop-color="white" stop-opacity="0"/>
<stop offset="1" stop-color="#BBB7FF"/>
</linearGradient>
<clipPath id="clip0_3560_801">
<rect width="780" height="400" fill="white"/>
</clipPath>
<clipPath id="clip1_3560_801">
<rect width="331" height="186" fill="white" transform="translate(224.5 107)"/>
</clipPath>
<clipPath id="clip2_3560_801">
<rect width="271.213" height="213.224" fill="white" transform="translate(254.07 101.465)"/>
</clipPath>
<clipPath id="clip3_3560_801">
<rect x="81.3672" y="66.1073" width="83" height="53.12" rx="1.992" fill="white"/>
</clipPath>
<clipPath id="clip4_3560_801">
<rect x="617.121" y="66.1073" width="83" height="53.12" rx="1.992" fill="white"/>
</clipPath>
<clipPath id="clip5_3560_801">
<rect x="81.3672" y="173.32" width="83" height="53.12" rx="1.992" fill="white"/>
</clipPath>
<clipPath id="clip6_3560_801">
<rect x="617.121" y="173.32" width="83" height="53.12" rx="1.992" fill="white"/>
</clipPath>
<clipPath id="clip7_3560_801">
<rect x="81.3672" y="280.533" width="83" height="53.12" rx="1.992" fill="white"/>
</clipPath>
<clipPath id="clip8_3560_801">
<rect x="617.121" y="280.533" width="83" height="53.12" rx="1.992" fill="white"/>
</clipPath>
</defs>
</svg>
